<svg xmlns="http://www.w3.org/2000/svg" version="1.1" width="600px" height="600px" viewBox="0 0 200 200" style="overflow:hidden!important;"><g id="svga-group-wrapper"><g id="svga-group-backs-single"><path id="SvgjsPath14710" d="M0 0h200v200H0V0z" fill="#270051" stroke-width="none" opacity="1"></path><path id="SvgjsPath14711" d="M75.9 12.6C50 52.8 18 117.1 50.4 133.9S129.8 94.2 151 97.2s12.5 39.3-9.9 65.2c-17.2 19.8-61.2 31.1-86.7 37.6H200V0H80.6c-.2 3.7-1.7 7.9-4.7 12.6zM39.6 161.1c-15.5-5.6-22-17.7-15.1-47.5C28.7 95.6 16 84.2 0 83.2V200h37.5c11-12.4 13.5-34.7 2.1-38.9z" fill="#13004f" stroke-width="none" opacity="1"></path><path id="SvgjsPath14712" d="M98.7 29.5c-9.3-15.5-28.5-24.1-46-19-7.4 2.2-14.6 6.2-19.8 12-5.5 6.1-8.1 12.2-9.3 20.2-.7 4.4 5.8 8.3 8 3.4 3.6-8.1 11.7-15.6 20.1-18.4 4.6-1.5 9.7-1.9 14.3-.2 4.5 1.6 8.1 5.9 11.4 9.2 3.4 3.5 4.8 7.1 4.2 12-.4 3.9-1.9 8.9-4.9 11.6-2.9 2.5-6.9 3.1-10.5 2.5-2.4-.4-4.9-1.2-7.2-2-2.6-.9-4.5-2.8-7.3-3.2-2.9-.4-6.6.7-7.2 4.1-1.5 8.5 6.3 17 13.6 20.3 9 4.2 20 3.3 28.4-1.8 16.1-9.8 21.9-34.5 12.2-50.7zM200 107.6c-4.1 3.3-7.7 7.1-10.7 11.2-6.3 8.8-10.7 22.6-1.5 31.1 3.5 3.3 7.8 4.7 12.2 5v-47.3zm-73 58.2c-2.5-.7-5.1-1.1-7.7-1.2.3-.4.7-.8 1-1.3 4.1-5.4 9.2-12.6 9.1-19.7-.4-17.7-24.9-18.4-37.7-17.5-15 1.1-29.3 5.9-42.5 13-6.2 3.3-12 7.2-17.7 11.4-4.8 3.5-9.8 7.1-13.4 11.9-.3.2-.5.5-.8.7-3.5 3.1-7.3 6.7-8.3 11.4-1.2 5.5.6 11.4 5.5 14.4 8.4 5.3 21.2 2.1 30.4.6 4-.6 7.9-1.4 11.8-2.2 3.8 3.1 9.2 4.9 13.7 5.5 10.1 1.4 21-.2 28.8-7.2 4.6.6 9.8-.1 14.2-.2 1.4 0 2.9-.1 4.3 0-1 1-2 2-2.9 3-3.7 3.9-7.3 7.6-10.5 11.6h28.4c4.5-4.6 8.7-9.9 9-16.3.4-8.9-6.6-15.6-14.7-17.9zm-.1-122.4c-4.2 11.8-.1 24.1 12 28.7 10.6 4.1 23.2.7 33.2-3.4 9.9-4 19.3-9.1 27.8-15.4V0h-27.2c-9.6 4.4-18.5 10.3-26.6 17.2-8.2 7.1-15.5 15.8-19.2 26.2z" fill="#0a0035" stroke-width="none" opacity="1"></path><path id="SvgjsPath14713" d="M200 145c-1.6 1.1-3.1 2.2-4.6 3.2-22.9 15.8-46.9 31.1-65.8 51.8h.4c2.7-3 5.6-5.9 8.5-8.7 18.6-17.7 40.5-31.3 61.5-45.9v-.4zM10.9 200c2-3.4 4.2-6.6 6-9.4 15.4-22.6 36.5-40.8 58.9-56.3 26.9-18.7 56-33.8 83.2-51.9 14.4-9.5 29.4-20 41-33.1v-.5c-12.4 14.1-28.8 25.2-44.2 35.3-25.5 16.6-52.3 30.8-77.4 48-21.2 14.5-41.3 31.1-57 51.7-3.7 4.8-7.9 10.3-11.2 16.2h.7zm73.2-7.8c20.7-19.7 40.2-40.8 62.6-58.7 16.1-12.9 33.9-24.4 53.3-31.6v-.3c-8.6 3.2-16.9 7.3-24.9 11.9-38.6 22.4-67.1 56.9-99.8 86.6h.4c2.9-2.7 5.6-5.3 8.4-7.9zM0 154.1v.6c15.9-14.9 36.8-25.3 57.4-31.9 33.6-11 69.9-15 102.6-28.8-50.6 20.8-114.9 20.3-156.8 57.2-1.1 1-2.2 1.9-3.2 2.9zm200-85.3c-7.1 6.6-15.1 12.3-23.5 17.1-5.4 3.1-10.9 5.7-16.5 8.1 14.8-6.1 28.4-14 40-25.2zM144.1 0c-.3 1.5-.6 2.9-1.2 4.3-5.5 14.8-21.3 24.1-34.8 30.6C93.2 42.2 77 46.6 60.5 47.8c-16.4 1.3-34.6.3-48.9-8.4C7.1 36.7 3.1 33.1 0 28.9v.8c1.1 1.4 2.3 2.7 3.5 4C16.6 46.4 36 49 53.5 48.6c18.9-.5 37.7-5 54.7-13.2 14.2-7 31.5-17.4 35.8-33.8.1-.5.3-1.1.4-1.6h-.3z" fill="#49006b" stroke-width="none" opacity="1"></path><path id="SvgjsPath14714" d="M55.2 17.1c20.4 0 36.9 16.5 36.9 36.9S75.6 90.9 55.2 90.9 18.3 74.4 18.3 54s16.5-36.9 36.9-36.9z" fill="#b74513" stroke-width="none" opacity="1"></path><path id="SvgjsPath14715" d="M74.6 130.2c16.2 0 29.4 13.2 29.4 29.4S90.8 189 74.6 189s-29.4-13.2-29.4-29.4 13.2-29.4 29.4-29.4z" fill="#1350bc" stroke-width="none" opacity="1"></path><path id="SvgjsPath14716" d="M145.8 29c11.6 0 21 9.4 21 21s-9.4 21-21 21-21-9.4-21-21 9.4-21 21-21z" fill="#48a1af" stroke-width="none" opacity="1"></path><path id="SvgjsPath14717" d="M63.2 21.2c0 7.9-3 17-10.2 24.2s-24.2 22-9.2 20.1S60.4 43.7 67 37.1c5.7-5.7 10.3-9.5 15.3-8.2-5.4-5.8-12.7-9.9-20.9-11.3 1.1 1 1.8 2.2 1.8 3.6zM21.7 69.3c1.5-3.1 2-9 3.8-11.7 2.6-3.9 15.9-17.5 18.3-24 2.4-6.5 3.3-13.5.2-8.3s-2 6.3-7.8 12-9.6 15-8.9 8.1c.6-7 3.9-13.3 7.2-15.9s7.2-3.9 8.1-7.6c.3-1.3.2-2-.1-2.4-14 5.2-24 18.7-24 34.6-.1 5.4 1 10.6 3.2 15.2zm44.4 20c1.7-5.5 4.6-11.8 7.4-16.8 6.3-11.1 10.9-35.3 6.3-23.8-4.6 11.6-5.2 18.5-13.7 26-8.5 7.4-14.4 9.2-17.5 9.6s6.8-7 8.7-9.2c2-2.2 4.6-7.8-1.5-3.3S49 77.9 44 80.3c-4.5 2.2-8.2-.3-11.9 2.4 6.3 5.1 14.3 8.1 23.1 8.1 3.8.1 7.5-.5 10.9-1.5z" fill="#c62500" stroke-width="none" opacity="1"></path><path id="SvgjsPath14718" d="M58.1 46.4c-3.4 4.2-5.3 4.4-8.5 8.9S44 62.6 47 61.4c3-1.2 6.4-3.7 8.3-7.4s2.8-7.6 2.8-7.6zM21 59.4c1-4 .2-6.3 1.6-8.3S26 45 26 45s-2.2 6.1-2.8 8.3-2.2 6.1-2.2 6.1zm69.5-1.7c-1 7.5-8.7 15.3-12.1 17.8-3.4 2.6-7.9 9.7-5.7 7.9s5.3-5.9 8.5-7.9 4.9-3.2 6.9-6.5c.5-.9 1.2-1.8 1.9-2.8 1.3-3.8 2.1-7.9 2.1-12.1 0-4.4-.8-8.6-2.2-12.5.3 4.8 1.3 10.7.6 16.1zM58.3 86.8c-3.4 2.5-6.3 3-10.7 3.3 2.5.5 5 .8 7.7.8 1.8 0 3.6-.1 5.3-.4 1.5-1.9 3-4.2 5-6.5 4.2-4.8 6.5-11.7 5.7-11.9-.8-.2-8.1 11.1-13 14.7zM84 30.9c-6.3 1.5-12.6 6.1-15.4 8.6-3.6 3.2-6.3 15.8-12.5 24.7s-18 4.6-20 1.2 1.2-3.4 3.4-8.1 5.9-6.5 9.3-9.5c3.4-3 10.1-15.2 11.7-20 1.3-4 1-7.4-.5-10.3-.3 0-.6-.1-1-.1-.1 1.6-.3 4.2-.5 6.7-.4 4-4.2 12.3-7.3 16.8C48 45.4 36.9 55.1 33.9 59c-3 4-4.9 12.7 2 15.2s19.4-3.2 22.2-6.9S68.4 45.2 70.3 41c1.4-2.8 9.5-6.8 14.5-9-.2-.4-.5-.8-.8-1.1zm2.8 4c-5.6 2.9-11.3 5.2-13.5 12.1-2.6 7.9-1.6 7.7-3.8 13.7s-5.7 10.9-3 8.1c2.7-2.8 6.5-17.4 7.7-20.6s2-6.1 4.6-7.9c2.3-1.6 6.9-3.4 8.5-4.4-.1-.4-.3-.7-.5-1zM49 17.9c-.4 3.6 1 3.8 1.6 8.5s-.2 5.5-1 9.1-5.7 7.1-8.1 9.7-8.9 7.9-10.5 10.1-3.4 11.1-3.6 15.8c-.1 1.8-.6 3.8-1.3 5.5.3.4.7.9 1.1 1.3 1.2-5.9 2.7-17.4 4.6-21.5 2.2-4.8 8.3-8.1 15.6-15s3.8-7.1 5.7-12.7c1.4-3.9.8-8.2-.1-11.6-1.4.1-2.7.2-4 .5v.3zM18.4 53.5c1-1.9 2-4.2 2.7-6.7 1.8-6.9 2.8-5.2 6.7-12.3 2.4-4.3 4.3-7.4 5-9.8-8.6 6.7-14.3 17.1-14.4 28.8z" fill="#d66c03" stroke-width="none" opacity="1"></path><path id="SvgjsPath14719" d="M30.2 81.6s-4 10.9-5 17.3 3.3 18.8 32.7-15.3 37.7-64.8 35.5-70.4S78 17.7 78 17.7 88.1 7.4 95 9.5c6.8 2.1-.7 23.8-13.7 45.7s-31.8 45-48 52.7-12.2-9.1-3.1-26.3z" fill="#841000" stroke-width="none" opacity="1"></path><path id="SvgjsPath14720" d="M30.2 82.4s-8.4 18.3-4.5 23.7c3.5 4.8 26.4-11.9 41.7-35.2s29.7-51.3 27.3-58.4-20.2 7.8-20.2 7.8 12.2-7.8 16.2-7.8-.7 13.7-4.9 22.4-20 35.1-32 49.4-25.9 22.1-27.1 18.4c-1.2-3.8.9-14.6 3.5-20.3z" fill="#ffb852" stroke-width="none" opacity="1"></path><path id="SvgjsPath14721" d="M162.4 62.8c-4.5 3.6-9.8 6.4-15.5 6.7 1.5-1.4 2.9-2.9 4.2-4.4 4.5-5.1 9.1-8.3 14.8-11.7l.6-.3c.1-.4.1-.8.1-1.2-1.7 1.2-3.6 2-5.5 3-.5.3-1 .5-1.4.8l3.9-3c1-.8 2.1-1.5 3.1-2.2v-.2c0-.5 0-.9-.1-1.4-3.7 3.5-8.4 6.8-12.5 9.5-6.9 4.5-15.2 4.2-22.7 6.9 0 0 0-.1-.1-.1 3.2-2.3 6.8-4.3 9.6-6.3 5.6-4 11-8.4 15.4-13.6 1.9-2.3 3.8-5.5 5-8.9l-1.2-1.2c-3.1 8.3-13.5 17-18.9 21-2.7 2-6.3 4-9.6 6.2.3-.4.6-.8.9-1.1 5.3-6.2 11.6-11.5 16.6-17.9 2.6-3.3 5.2-7.7 5.3-12.1-.7-.3-1.5-.6-2.2-.9.1.4.1.8.1 1.1-.1 2.1-.9 4.2-1.8 6-1.5 2.9-3.6 5.5-5.9 7.9-4.4 4.8-9.3 9.3-13.6 14.3-.2.2-.3.4-.5.6.4-3.2 2.1-6.6 3.7-9.2.8-.7 1.5-1.4 2.2-2.1 1.4-1.5 2.9-3.2 4.1-5.1 1.6-1.6 3.2-3.1 4.6-4.9 2.2-2.8 3.4-6.3 2.6-9.4h-.7c.9 3.5-1.5 7.2-4.6 10.7.8-2.2 1.1-4.5.3-6.7-.6-1.6-1.4-2.7-2.4-3.4-2 .5-3.8 1.3-5.5 2.3 1.6.4 3.1.8 4.7 1.3-1.1 3.9-3.6 6.8-7.1 9.1-.8.6-1.7 1.1-2.6 1.5-.7.2-1.3.5-2 .7-1 .5-1.8.6-2.5.2-.4 1.7-.7 3.4-.7 5.2v.5c.8.6 2.1.9 3.8.8.9 0 1.8-.3 2.7-.6-.8.6-1.5 1.1-2.4 1.6-1.1.7-2.4 1.5-3.8 1.8.1.6.3 1.1.4 1.6 2.1-.6 4.1-1.6 5.9-2.8-1.3 2.6-2.4 5.8-2.3 8.7-.2.2-.3.4-.5.6 1.1 1.5 2.3 2.8 3.7 4 4.9-1.8 10.2-2.1 15.3-3.6 2.6-.8 5-2 7.2-3.5-1.2 1-2.3 2.1-3.4 3.2-2.9 2.9-5.6 6-8.8 8.5.8.1 1.6.2 2.4.2l.2-.2c1.6.1 3.2 0 4.9-.3 5.3-1.6 9.6-4.4 12.5-8.2zm-33.8-13.3c-1.9.4-3.1-.5-3.5-2.8.6.1 1.3 0 2.1-.1 5.8-.8 12.9-6.7 13.7-12.9.1 0 .1 0 .2.1 1.4 1.9-.5 5.6-1.5 7.3-.5.9-1.1 1.8-1.7 2.6-1.4 1.6-3.1 3-5.1 4.2-1.2.9-2.5 1.7-4.2 1.6zm34.9-9.1c.1-.4.3-.7.4-1.1-.3-.5-.6-1-.9-1.4-1 2.5-2.3 5-2.4 7.6-.1 2.2 1.4 3.8 3.6 3.7.9 0 1.8-.3 2.5-.8 0-.5-.1-1-.1-1.4-.2.2-.4.3-.6.4-1.4 1.3-2.8.7-4-1.9.1-.9.3-1.7.6-2.5.2-.8.5-1.7.9-2.6z" fill="#6bd3dd" stroke-width="none" opacity="1"></path><path id="SvgjsPath14722" d="M139 63.7c3.7-2 7.5-3 10.8-5.7-3.3 2.4-7.5 3.7-10.9 5.6-.1 0 0 .1.1.1zm15.6-11.9c-1-1.3-3.6 1.8-4.1 2.2-2.1 1.8-4.1 3.6-6.6 5-1.7 1-3.4 1.9-4.6 3.5-.1.1.1.2.1.1 2.1-2.3 5.2-3.4 7.7-5.3 1-.8 1.9-1.6 2.8-2.4.5-.5 1-1 1.6-1.4.9-.6 3.3-2 2.2.1-.5 1-1.1 1.8-1.8 2.5 1.5-1.4 3.4-3.4 2.7-4.3zm-4.8 6.2c.7-.5 1.4-1.1 2.1-1.8-.9.8-1.6 1.5-1.9 1.7-.1 0-.1.1-.2.1zm-2.1-19.3c-1.1 1.8-2.6 3.5-4.1 5-2.1 2.1-4.3 4-6.6 5.9-3.5 2.9-7.1 5.7-10.3 9 .1.1.1.2.2.4 5.8-5.6 12.7-10.1 18.1-16.1 3.6-4 6.5-9.5 3-13.7h-.7c1.8 2.6 1.9 6.9.4 9.5zm13.9 24.1c-4 3.1-9 6.4-14.3 8.2.9-.1 1.7-.2 2.5-.3 4.5-1.9 8.7-4.8 12.1-7.4.1-.1.2-.1.3-.2.5-.6.9-1.2 1.3-1.8-.6.4-1.2.9-1.9 1.5zM154 34.9c-.1.7-.5 3-1.1 3.2-2.4.7-1-1.7-.8-2.4.6-2 .6-4.1-.4-5.8-.1 0-.2-.1-.3-.1.8 1.4 1 3 .7 4.7-.2 1-1.1 2.4-1 3.5.1.8.7 1.3 1.4.9 1.2-.6 1.8-3.5 1.9-4.6.2-1.2.1-2.3-.1-3.5-.1 0-.2-.1-.3-.1.2 1.3.2 2.7 0 4.2zm-26.3 4.6c1.3-.8 2.8-1.4 4.1-2 .5-.2 1-.5 1.5-.8.1-.1.2-.1.3-.2.1 0 .2-.1.2-.2.3-.2.6-.5.9-.7 1.7-1.4 3.1-3.3 3.8-5.2-.3.1-.5.2-.8.3-.1.2-.2.3-.2.5-.1.2-.2.5-.4.7.1-.2.1-.4.2-.6V31c-.3.1-.5.2-.8.4-.1.7-.3 1.3-.6 1.8-1.1 2.4-3.2 3.5-5.5 4.5-.2.1-.3.1-.5.2-.5.1-.9.2-1.4.3-.1.1-.1.2-.2.3h.6c-.3.1-.5.2-.8.4-.1 0-.2.3-.4.6zm8.3 4.1c1.5-1.9 3.3-5.4 4.2-8.9.8-1.7 1.6-3.5 2.2-5.4-.1 0-.3 0-.4.1-.4 1.2-.9 2.4-1.4 3.5.1-.5.1-1 .1-1.5.2-.4.3-.8.3-1.2v-.6c-.2 0-.4.1-.7.2v.2c-.1.6-.2 1.2-.6 1.9-.5 1-1.6 1.9-2.4 2.7-2.8 2.7-6.4 5.5-10.3 6-.1.2-.2.3-.2.5 2.5-.2 4.8-1.4 6.9-2.9 2.1-1.4 5.2-3.6 6.6-6.2 0 .5-.1 1.1-.2 1.6C139 36 137.8 38 137 39c-1.2 1.7-7.7 8.8-12.1 9.1v.5c4.4-.4 11-7.2 12.5-9.3.6-.8 1.4-2.1 2.2-3.6-.7 2.3-1.8 4.5-2.7 5.9-1.1 1.6-2.4 3.1-3.8 4.4-1.1 1-2.4 2-3.7 2.7-1.8 1.1-3.3 1.5-4.6 1.2v.5c4.4.4 8.7-3.7 11.2-6.8zm-4.4 8.4c3.8-4 9-7.1 12-11.8 2.1-3.2 3.1-7.3 1.1-10.9-.1-.1-.1-.2-.2-.2-.8 0-1.5.1-2.2.2l2.7 1.6c.1 1.1.3 2.1.4 3.2-.1 3-1.5 5-3.2 7.2-1.6 1.9-3.4 3.5-5.2 5-3.4 2.9-6.7 6-9.4 9.5-.4.6-.9 1.2-1.3 1.9.1.1.1.3.1.4 1.7-2.3 3.6-4.4 5.2-6.1zm30.8 3.8c-.2.3-.3.6-.5.9-3.2 2.1-6.6 3.9-9.2 6.7-2.5 2.7-4.7 5.3-7.2 7.4-.1.1-.2.1-.3.2h1.5l.3-.3c6.3-3.1 11.8-7.5 15.4-13.7 1.5-.9 2.8-1.8 4.1-2.9.1-.3.1-.6.1-.8-1.1 1.1-2.4 2-3.7 2.9.2-.4.5-.9.7-1.3 1.4-2.8 2.3-6.2 2.6-9.8-.1-.4-.2-.8-.3-1.3-.3 4.2-1.5 8.4-3.5 12zm-14.3 13.7c1.1-1.1 2.1-2.2 3.1-3.5 3-3.5 6.2-6.2 10.2-8.5-3.3 5.3-8 9.2-13.3 12zm-2.9-3.9c-2.6 1.4-5.4 2.6-8.3 3.4.6.3 1.2.5 1.8.7 2.3-.9 4.4-2 6.4-3.3 3.4-1.9 6.5-4.2 9.3-7.3 5.4-6.1 8.4-14 7.9-21.9-.2-.3-.4-.5-.6-.8.6 8.8-2.7 17.4-9.3 23.8-1 .9-2 1.8-3 2.5 2-2 3.8-4.4 5.2-7.1 1.4-2.6 2.4-5.2 3.1-7.8 1.5-4.7 1.8-9.6.8-14.5-.2-.2-.5-.4-.8-.6.4 1.4.6 2.8.7 4.3-.2-1.3-.5-2.5-.9-3.8V33v.2c-.1-.3-.2-.5-.3-.8-.2-.1-.3-.2-.5-.3.3.7.5 1.3.7 2-.2 2.3-1.2 4.7-2.6 7 .1-.4.3-.8.4-1.1.7-2.3 1-5.4.7-8.3l-.6-.3c.3 2.6 0 5.4-.6 7.7-.5 1.8-1.1 3.6-2 5.2-2.2 3-4.7 5.7-6.4 7-4.7 3.8-12.9 8.5-19.7 7.7.1.1.1.2.2.3 8.3 1.2 18.9-6.2 23.8-11.4-1.2 1.7-2.5 3.2-4 4.6-3.9 3.6-13 7.2-15.4 12.7.1.1.3.2.4.4 2.9-5.6 11.1-8.5 15.5-12.6 2.9-2.7 5.2-5.9 6.8-9.5 1.7-2.8 3.1-6.2 3.4-9.3.6 1.9 1 3.8 1 5.8 0 .5 0 1-.1 1.6 0 .4-.1.8-.1 1.2 0 .2 0 .3-.1.5-.1.5-.1 1-.2 1.4 0 .2-.1.4-.1.6-.1.5-.2.9-.3 1.4 0 .1-.1.2-.1.3-.7 2.4-1.7 4.7-3.1 6.9-2.6 4.2-6.2 7.7-10.3 10.3-2.2 1.4-5.4 3.3-8.5 4.1.3.2.6.3 1 .5 5.9-1.8 12.2-7.1 15.2-10.5.8-.9 1.5-1.9 2.2-2.8-.1.2-.2.3-.3.5-2 4.1-4.9 7.2-8.3 9.6z" fill="#ffffff" stroke-width="none" opacity="1"></path><path id="SvgjsPath14723" d="M57 137.1c6.6 3.6 13.7 6.1 21.1 7.3 6.2 1 14.8 2.1 19.7-2.9-.3-.4-.6-.7-.8-1.1-1.2-1.4-2.6-2.8-4-3.9-.2.1-.4.3-.6.4-2.2 1.3-5.9.8-8.2.5-5.1-.5-10.2-1.8-14.9-3.7-1.5-.6-3-1.3-4.5-2-3 1.1-5.9 2.7-8.5 4.8.1.3.4.5.7.6zm15.3 32.7c-7.6-1.2-15.3-3-22.1-6.7-1.8-1-3.5-2.1-5.1-3.2.1 6.7 2.4 13.4 7 18.8 8.3 9.7 21.5 12.7 32.8 8.4-3.1-.3-6.3-1-9.2-2-6.1-2.1-11.5-5.6-16.8-9.2 5 1.3 10.2 2 15.2 2.6 8 .9 16.3.7 23.9-1.3 2.5-3.4 4.3-7.2 5.2-11.2-.5 0-.9-.1-1.4-.1-8.8-.7-17.3-3.7-25.5-7-8.2-3.4-16.3-7.4-23.2-13.1-1-.8-2-1.7-3-2.6-1.4 2.1-2.5 4.3-3.3 6.6 5 4.4 11.2 7.7 16.3 10.3 8.9 4.5 18.6 8.3 28.5 10.4-6.5.7-13.1.2-19.3-.7z" fill="#003daa" stroke-width="none" opacity="1"></path><path id="SvgjsPath14724" d="M104.2 161.9c.4-3.9-.1-7.8-1.2-11.6-1.2-3.7-3.1-7.2-5.7-10.2s-5.7-5.5-9.2-7.2c-3.5-1.8-7.3-2.8-11.2-3.1-7.8-.6-15.8 2.1-21.6 7.2-2.9 2.6-5.3 5.7-7.1 9.1-1.7 3.5-2.8 7.2-3.1 11.1-.3 3.9.1 7.8 1.3 11.5s3 7.2 5.5 10.2 5.6 5.5 9.1 7.2c3.5 1.8 7.3 2.8 11.2 3 7.8.5 15.6-2.2 21.5-7.2 5.9-4.9 9.7-12.2 10.5-20zm-.7-.3c-6.8 1.4-14.5.7-20.9-.7-1.4-.3-2.8-.7-4.2-1 .9 0 1.8 0 2.8-.1 7.3-.5 15.9-2.5 21.2-7.9.9 3.1 1.3 6.4 1.1 9.7zm-1.3-10.6c-4.5.6-9.4-.4-13.4-1.3-5.7-1.4-11.1-3.7-16-6.8-4-2.6-7.7-5.8-10.8-9.4 1.2-.6 2.4-1 3.6-1.4.1 0 .2-.1.3-.1 4.6 2.6 10.9 3.3 15.6 3.8 2.9.3 6.3.5 9.6.2 2 1.4 3.8 3.1 5.4 4.9 2.6 2.9 4.5 6.3 5.7 10.1zm-25.4-20.3c4.7.4 9.2 1.9 13.2 4.4-1.8.2-3.6.2-5.1.2-3.9-.1-7.9-.7-11.7-1.6-1.3-.3-2.7-.7-4-1.1-.8-.3-1.6-.6-2.3-1 3.2-.8 6.6-1.2 9.9-.9zm-15.4 2.9c2.3 2.6 4.9 4.9 7.4 6.9 6.2 4.9 13.6 8.2 21.3 9.8 3.5.7 8.1 1.5 12.1 1v.1c-1.4 1.4-2.9 2.6-4.6 3.6-6.1 3.5-13.7 4.7-20.8 4.5-4.2-1.3-8.2-2.9-12-5.1-2.7-1.5-5.2-3.2-7.5-5.3-1.2-1.1-2.4-2.2-3.4-3.6-.5-.7-1.6-2.2-2.5-4 1.2-1.5 2.6-2.9 4.1-4.2 1.9-1.4 3.9-2.6 5.9-3.7zM51.2 142c1 1.9 2.3 3.6 3 4.5 5.3 6.3 13.2 10.3 21 12.9-.3 0-.6 0-.9-.1-9.2-.6-19.3-3.5-27.6-8.7 1-3 2.5-6 4.5-8.6zm-4.7 9.3c9.1 5.6 20.4 8.4 30.4 8.6 7.5 2.3 17.8 4 26.6 2.2-.3 3.7-1.2 7.3-2.9 10.7-.9 1.8-2 3.5-3.3 5.1-1.9.8-3.9 1.5-5.9 1.9-14.6 3.1-30.2-2.8-41.8-11.7-1.3-1-2.5-2.1-3.7-3.2-.5-2.6-.7-5.2-.5-7.8.1-1.8.5-3.8 1.1-5.8zm-.4 14.5c5.9 5.4 13.4 9.4 20.5 12 9.6 3.6 20.6 4.4 30.2.8-.7.8-1.3 1.5-2.1 2.2-3.3 1.8-6.9 3.1-10.7 4-3.9.4-7.9.3-11.8-.2-6.3-.8-13.9-3.2-20.5-7.1-2.7-3.4-4.6-7.4-5.6-11.7zM93.4 182c-.6.5-1.3 1-2 1.5-1.4.3-2.7.6-4.1.9 2.1-.6 4.1-1.4 6.1-2.4zm-41.1-3.8c6.5 3.9 13.9 6.4 21.5 7.2 2.2.2 4.4.3 6.6.2-4 .7-8 .9-11.8.8-2.2-.1-4.3-.3-6.4-.6-3.7-1.8-7-4.3-9.7-7.4 0-.1-.1-.1-.2-.2zm20 10.4c-2.9-.3-5.7-1-8.4-2.1 1.5.2 3.1.4 4.7.4 4.9.1 10.2-.3 15.4-1.6 2.1-.2 4.3-.6 6.4-1-2.1 1.3-4.3 2.4-6.7 3.1-3.8 1.1-7.6 1.5-11.4 1.2z" fill="#ffffff" stroke-width="none" opacity="1"></path><path id="SvgjsPath14725" d="m111.5 40.1-2.4-.2c-.1 0-.3 0-.4.2l-1.5 1.8c-.2.3-.7.2-.7-.2l-.5-2.3c0-.1-.1-.2-.2-.3l-2.2-.9c-.3-.1-.4-.6-.1-.7l2-1.2c.1-.1.2-.2.2-.3l.1-2.4c0-.3.4-.5.7-.3l1.8 1.5c.1.1.2.1.4.1l2.3-.6c.3-.1.6.2.5.6l-.9 2.2c-.1.1 0 .3 0 .4l1.3 2c.2.3 0 .7-.4.6zm42.6 118.5-2.4-.2c-.1 0-.3.1-.4.1l-1.5 1.9c-.2.3-.6.2-.7-.2l-.6-2.3c0-.1-.1-.2-.2-.3l-2.2-.9c-.3-.1-.4-.6-.1-.7l2-1.2c.1-.1.2-.2.2-.3l.1-2.4c0-.3.4-.5.7-.3l1.8 1.6c.1.1.2.1.4.1l2.3-.6c.3-.1.6.2.5.6l-.9 2.2c-.1.1 0 .3 0 .4l1.3 2c.3.2 0 .5-.3.5zM17.2 34.2l-2.4-.2c-.1 0-.3 0-.4.2L13 36c-.2.3-.6.2-.7-.2l-.6-2.3c0-.1-.1-.2-.2-.3l-2.2-.9c-.3-.1-.4-.6-.1-.7l2-1.2c.1-.1.2-.2.2-.3l.1-2.4c0-.3.4-.5.7-.3L14 29c.1.1.2.1.4.1l2.3-.6c.3-.1.6.2.5.6l-.9 2.2v.4l1.3 2c.2.2-.1.5-.4.5zm81.6 75.5-2.4-.2c-.1 0-.3.1-.4.2l-1.5 1.8c-.2.3-.7.2-.7-.2l-.6-2.3c0-.1-.1-.2-.2-.3l-2.2-.9c-.3-.1-.4-.6-.1-.7l2-1.2c.1-.1.2-.2.2-.3l.1-2.4c0-.3.4-.5.7-.3l1.8 1.6c.1.1.2.1.4.1l2.3-.6c.3-.1.6.2.5.6l-.9 2.2c-.1.1 0 .3 0 .4l1.3 2c.2.1 0 .5-.3.5zm-43.3 20.9-2.4-.2c-.1 0-.3.1-.4.1l-1.5 1.9c-.2.3-.7.2-.7-.2l-.5-2.3c0-.1-.1-.2-.2-.3l-2.2-.9c-.3-.1-.4-.6-.1-.7l2-1.2c.1-.1.2-.2.2-.3l.1-2.4c0-.3.4-.5.7-.3l1.8 1.6c.1.1.2.1.4.1l2.3-.6c.3-.1.6.2.5.6l-.9 2.2v.4l1.3 2c.1.1-.1.5-.4.5zM172.7 112l-1.5-.1c-.1 0-.2 0-.2.1l-1 1.2c-.1.2-.4.1-.5-.1l-.4-1.5c0-.1-.1-.2-.2-.2l-1.4-.6c-.2-.1-.2-.4 0-.5l1.3-.8c.1-.1.1-.1.1-.2l.1-1.5c0-.2.3-.3.4-.2l1.1 1c.1.1.2.1.2.1l1.5-.4c.2-.1.4.2.3.4l-.6 1.4v.2l.8 1.3c.4.2.2.5 0 .4zm20.7 76-1.5-.1c-.1 0-.2 0-.2.1l-1 1.2c-.1.2-.4.1-.5-.1l-.4-1.5c0-.1-.1-.1-.2-.2l-1.4-.6c-.2-.1-.2-.4 0-.5l1.3-.8c.1-.1.1-.1.1-.2l.1-1.5c0-.2.3-.3.4-.2l1.1 1c.1.1.2.1.2.1l1.5-.4c.2-.1.4.1.3.4l-.6 1.4v.2l.8 1.3c.3.2.2.4 0 .4zM78.6 96.5l-1.6-.1c-.1 0-.2 0-.2.1l-1 1.2c-.1.2-.4.1-.5-.1l-.3-1.5c0-.1-.1-.2-.2-.2l-1.4-.6c-.2-.1-.2-.4 0-.5l1.3-.8c.1-.1.1-.1.1-.2l.1-1.5c0-.2.3-.3.4-.2l1.2 1c.1.1.2.1.2.1l1.5-.4c.2-.1.4.2.3.4l-.5 1.4v.2l.8 1.3c.1.1 0 .4-.2.4zm47.6 61.6-1.5-.1c-.1 0-.2 0-.2.1l-1 1.2c-.1.2-.4.1-.5-.1l-.3-1.5c0-.1-.1-.1-.2-.2l-1.4-.6c-.2-.1-.2-.4 0-.5l1.3-.8c.1-.1.1-.1.1-.2l.1-1.5c0-.2.3-.3.4-.2l1.2 1c.1.1.2.1.2.1l1.5-.4c.2-.1.4.1.3.4l-.6 1.4v.2l.8 1.3c.1.2 0 .5-.2.4zm54.9-74.2-1.2-.9c-.1-.1-.2-.1-.2 0l-1.4.5c-.2.1-.4-.1-.3-.3l.4-1.4v-.2l-.9-1.2c-.1-.2 0-.4.2-.4h1.5c.1 0 .2 0 .2-.1l.8-1.3c.1-.2.4-.2.5.1l.5 1.4c0 .1.1.2.2.2l1.5.4c.2.1.3.3.1.5l-1.2.9c-.1.1-.1.1-.1.2l.1 1.5c-.2.1-.5.3-.7.1zM19.7 20.1l-1.2-.9c-.1 0-.2-.1-.2 0l-1.4.5c-.2.1-.4-.1-.3-.3l.5-1.5v-.2L16 16.5c-.1-.2 0-.4.2-.4h1.5c.1 0 .2 0 .2-.1l.8-1.3c.1-.2.4-.1.5.1l.5 1.4c0 .1.1.1.2.2l1.5.4c.2.1.3.3.1.5l-1.2.9c-.1 0-.1.1-.1.2l.1 1.5c-.1.2-.4.3-.6.2zm-4.6 160.4-1.2-.9c-.1-.1-.2-.1-.2 0l-1.4.5c-.2.1-.4-.1-.3-.3l.4-1.4v-.2l-.9-1.2c-.1-.2 0-.4.2-.4h1.5c.1 0 .2 0 .2-.1l.8-1.3c.1-.2.4-.1.5.1l.5 1.4c0 .1.1.1.2.2l1.5.4c.2.1.3.3.1.5l-1.2.9c-.1.1-.1.1-.1.2l.1 1.5c-.2 0-.5.2-.7.1zm9.2-23.9-1.2-.9c-.1-.1-.2-.1-.2 0l-1.4.5c-.2.1-.4-.1-.3-.3l.5-1.4v-.2l-.9-1.2c-.1-.2 0-.4.2-.4h1.5c.1 0 .2 0 .2-.1l.8-1.3c.1-.2.4-.1.5.1l.5 1.4c0 .1.1.1.2.2l1.5.4c.2.1.3.3.1.5l-1.2.9c-.1.1-.1.1-.1.2l.1 1.5c-.4.1-.6.2-.8.1zM126.9 91l-2.5-2.6c-.1-.2-.3-.2-.6-.2l-3.5.6c-.5.1-.9-.4-.7-.9l1.7-3.2c.1-.2.1-.4 0-.6l-1.7-3.2c-.2-.5.1-1 .7-.9l3.5.6c.2 0 .4 0 .6-.2l2.5-2.6c.4-.4 1-.2 1.1.3l.5 3.6c0 .2.2.4.3.5l3.2 1.6c.5.2.5.9 0 1.1l-3.2 1.6c-.2.1-.3.3-.3.5l-.5 3.6c-.1.6-.8.8-1.1.4zm7.1 92.6-2.5-2.6c-.1-.1-.4-.2-.6-.2l-3.5.6c-.5.1-.9-.4-.7-.9l1.7-3.2c.1-.2.1-.4 0-.6l-1.7-3.2c-.2-.5.1-1 .7-.9l3.5.6c.2 0 .4 0 .6-.2l2.5-2.6c.4-.4 1-.2 1.1.3l.5 3.6c0 .2.2.4.3.5l3.2 1.6c.5.2.5.9 0 1.1l-3.2 1.6c-.2.1-.3.3-.3.5l-.5 3.6c-.2.6-.8.8-1.1.4zm51.8-150.1-3.4-1.2c-.2-.1-.4 0-.6.1l-2.9 2.1c-.4.3-1 0-1-.5l.1-3.6c0-.2-.1-.4-.3-.5l-2.9-2.1c-.4-.3-.3-1 .2-1.1l3.4-1c.2-.1.4-.2.4-.4l1.1-3.4c.2-.5.8-.6 1.1-.2l2 3c.1.2.3.3.5.3h3.6c.5 0 .8.6.5 1l-2.2 2.8c-.1.2-.2.4-.1.6l1.1 3.4c.3.4-.2.9-.6.7zM32.1 142.8l-3.4-1.2c-.2-.1-.4 0-.6.1l-2.9 2.1c-.4.3-1 0-1-.5l.1-3.6c0-.2-.1-.4-.3-.5l-2.9-2.1c-.4-.3-.3-1 .2-1.1l3.4-1c.2-.1.4-.2.4-.4l1.1-3.4c.2-.5.8-.6 1.1-.2l2 3c.1.2.3.3.5.3h3.6c.5 0 .8.6.5 1l-2.2 2.8c-.1.2-.2.4-.1.6l1.1 3.4c.4.4-.1.8-.6.7z" fill="#ffd86c" stroke-width="none" opacity="1"></path><path id="SvgjsPath14726" d="M107 42.6h-.2c-.3-.1-.6-.3-.7-.7l-.6-2.3-2.2-.8c-.3-.1-.6-.4-.6-.8s.1-.7.4-.9l2-1.2.1-2.3c0-.3.2-.7.6-.8s.7-.1 1 .2l1.8 1.5 2.2-.6c.3-.1.7 0 .9.3.2.3.3.6.2 1l-.9 2.2 1.3 1.9c.2.3.2.7 0 1s-.5.5-.9.4l-2.4-.2-1.4 1.8c-.1.2-.4.3-.6.3zm-3.1-4.7 2.1.8c.3.1.5.3.6.6l.5 2.2 1.4-1.7c.2-.2.5-.4.8-.3l2.3.2-1.3-1.9c-.2-.2-.2-.6-.1-.8l.8-2-2.1.6c-.3.1-.6 0-.8-.2l-1.7-1.4-.1 2.2c0 .3-.2.6-.4.7l-2 1zm7.7 1.7zm37.9 121.5h-.2c-.3-.1-.6-.3-.7-.7l-.6-2.3-2.2-.8c-.3-.1-.6-.4-.6-.8s.1-.7.4-.9l2-1.2.1-2.3c0-.4.2-.6.6-.8s.7-.1 1 .1l1.8 1.6 2.2-.6c.3-.1.7 0 .9.3s.3.6.2.9l-.9 2.2 1.3 1.9c.2.3.2.7 0 1s-.5.5-.9.4l-2.4-.2-1.4 1.8c0 .3-.3.4-.6.4zm-3.1-4.7 2.1.8c.3.1.5.4.6.6l.5 2.2 1.4-1.7c.2-.2.5-.4.8-.3l2.3.2-1.3-1.9c-.2-.2-.2-.6-.1-.9l.9-2.1-2.1.6c-.3.1-.6 0-.8-.2l-1.7-1.4-.1 2.2c0 .3-.2.6-.4.7l-2.1 1.2zm7.7 1.7zM12.6 36.7h-.2c-.3-.1-.6-.3-.7-.7l-.6-2.3-2.1-.8c-.3-.1-.6-.4-.6-.8s.1-.7.4-.9l2-1.2.1-2.3c0-.4.2-.6.6-.8.3-.1.7-.1 1 .1l1.8 1.5 2.2-.6c.3-.1.7 0 .9.3s.3.6.2 1l-.9 2.2 1.3 1.9c.2.3.2.7 0 1s-.5.5-.9.4l-2.4-.2-1.4 1.8c-.1.3-.4.4-.7.4zM9.5 32l2.1.8c.3.1.5.3.6.6l.5 2.2 1.4-1.7c.2-.2.5-.4.8-.3l2.3.2-1.3-1.9c-.2-.2-.2-.6-.1-.9l.9-2-2.1.6c-.3.1-.6 0-.8-.2L12 27.9l-.1 2.2c0 .3-.2.6-.4.7l-2 1.2zm7.7 1.7zm77 78.4H94c-.3-.1-.6-.3-.7-.7l-.6-2.3-2.2-.8c-.3-.1-.6-.4-.6-.8s.1-.7.4-.9l2-1.2.1-2.3c0-.3.2-.7.6-.8s.7-.1 1 .2l1.8 1.6 2.2-.6c.3-.1.7 0 .9.3.2.3.3.6.2.9l-.9 2.2 1.3 1.9c.2.3.2.7 0 1s-.5.5-.9.4l-2.4-.2-1.4 1.8c-.1.2-.3.3-.6.3zm-3.1-4.7 2.1.8c.3.1.5.3.6.6l.5 2.2 1.4-1.7c.2-.2.5-.4.8-.3l2.3.2-1.3-1.9c-.2-.2-.2-.6-.1-.8l.8-2.1-2.2.6c-.3.1-.6 0-.8-.2l-1.7-1.4-.1 2.2c0 .3-.2.6-.4.7l-1.9 1.1zm7.7 1.8zm-47.9 23.9h-.2c-.3-.1-.6-.3-.7-.7l-.5-2.3-2.2-.8c-.3-.1-.5-.4-.6-.8s.1-.7.4-.9l2-1.2.1-2.3c0-.3.2-.7.5-.8s.7-.1 1 .2l1.8 1.6 2.2-.6c.3-.1.7 0 .9.3s.3.6.2.9l-.9 2.2 1.3 1.9c.2.3.2.7 0 1s-.5.5-.9.4l-2.4-.2-1.4 1.8c-.1.1-.3.3-.6.3zm-3.1-4.7 2.1.8c.3.1.5.4.6.6l.5 2.2 1.4-1.7c.2-.2.5-.4.8-.3l2.3.2-1.3-1.9c-.2-.2-.2-.6-.1-.8l.8-2.1-2.1.6c-.3.1-.6 0-.8-.2l-1.7-1.4-.1 2.2c0 .3-.2.6-.4.7l-2 1.1zm7.7 1.7zm114.3-16.5h-.1c-.2-.1-.4-.2-.4-.4l-.4-1.5-1.4-.5c-.2-.1-.4-.3-.4-.5s.1-.4.3-.6l1.3-.8.1-1.5c0-.2.1-.4.4-.5.2-.1.4-.1.6.1l1.1 1 1.4-.4c.2-.1.4 0 .6.2s.2.4.1.6l-.6 1.4.8 1.2c.1.2.1.4 0 .6s-.3.3-.6.3l-1.5-.1-.9 1.2c0 .1-.2.2-.4.2zm-1.9-3 1.3.5c.2.1.3.2.4.4l.3 1.4.9-1.1c.1-.2.3-.2.5-.2l1.4.1-.8-1.2c-.1-.2-.1-.4-.1-.5l.5-1.3-1.4.4c-.2.1-.4 0-.5-.1l-1.1-.9-.1 1.4c0 .2-.1.4-.3.5l-1 .6zm4.9 1.1zm17.7 77.9h-.1c-.2-.1-.4-.2-.4-.4l-.4-1.5-1.4-.5c-.2-.1-.4-.3-.4-.5s.1-.4.3-.6l1.3-.8.1-1.5c0-.2.1-.4.4-.5.2-.1.4-.1.6.1l1.1 1 1.4-.4c.2-.1.4 0 .6.2s.2.4.1.6l-.6 1.4.8 1.2c.1.2.1.4 0 .6s-.3.3-.6.3l-1.5-.1-.9 1.2c-.1.1-.3.2-.4.2zm-2-3 1.3.5c.2.1.3.2.4.4l.3 1.4.9-1.1c.1-.1.3-.2.5-.2l1.4.1-.8-1.2c-.1-.2-.1-.4-.1-.5l.5-1.3-1.4.4c-.2.1-.4 0-.5-.1l-1-1-.1 1.4c0 .2-.1.4-.3.5l-1.1.7zm4.9 1.1zM75.7 98c-.3-.1-.5-.2-.5-.4l-.3-1.5-1.4-.5c-.2-.1-.3-.3-.4-.5s.1-.4.3-.6l1.3-.8.1-1.5c0-.2.2-.4.3-.5.2-.1.4-.1.6.1l1.2 1 1.4-.4c.2-.1.4 0 .6.2s.2.4.1.6l-.6 1.4.8 1.2c.1.2.1.4 0 .6s-.3.3-.6.3H77l-.9 1.2c-.1.1-.3.1-.4.1zm-2-2.9 1.3.5c.2.1.3.2.4.4l.3 1.4.9-1.1c.1-.2.3-.2.5-.2l1.4.1-.8-1.2c-.1-.2-.1-.4-.1-.5l.5-1.3-1.4.4c-.2.1-.4 0-.5-.1l-1.1-.9L75 94c0 .2-.1.4-.3.5l-1 .6zm4.9 1.1zm44.7 63.5c-.3-.1-.5-.2-.5-.4l-.3-1.5-1.4-.5c-.2-.1-.3-.3-.4-.5 0-.2.1-.4.3-.6l1.3-.8.1-1.5c0-.2.2-.4.3-.5.2-.1.4-.1.6.1l1.2 1 1.4-.4c.2-.1.4 0 .6.2s.2.4.1.6l-.6 1.4.8 1.2c.1.2.1.4 0 .6s-.3.3-.6.3l-1.5-.1-.9 1.2c-.2.1-.4.2-.5.2zm-2-3 1.3.5c.2.1.3.2.4.4l.3 1.4.9-1.1c.1-.1.3-.2.5-.2l1.4.1-.8-1.2c-.1-.2-.1-.4-.1-.5l.5-1.3-1.4.4c-.2.1-.4 0-.5-.1l-1.1-.9-.1 1.4c0 .2-.1.4-.3.5l-1 .6zm4.9 1.1zm51.7-74-.1-.1c-.2-.2-.2-.4-.2-.6l.4-1.4-.9-1.1c-.1-.2-.2-.4-.1-.6.1-.2.3-.3.5-.3h1.5l.8-1.2c.1-.2.3-.3.6-.2s.4.2.5.4l.5 1.4 1.4.4c.2.1.4.2.4.4s0 .4-.2.6l-1.2.9.1 1.5c0 .2-.1.4-.3.5s-.4.1-.6 0l-1.2-.9-1.4.5c-.2-.1-.4-.1-.5-.2zm-.2-3.6.9 1.1c.1.2.2.3.1.5l-.4 1.3 1.3-.5c.2-.1.4 0 .5.1l1.2.8-.1-1.4c0-.2.1-.4.2-.5l1.1-.8-1.4-.4c-.2-.1-.3-.2-.4-.4l-.4-1.3-.8 1.2c-.1.2-.3.3-.5.3h-1.3zm3.6 3.5zM16.5 20s-.1 0-.1-.1c-.2-.1-.2-.4-.2-.6l.5-1.5-.9-1.1c-.1-.2-.2-.4-.1-.6.1-.2.3-.3.5-.3h1.5l.8-1.2c.1-.2.3-.3.6-.2s.4.2.5.4l.5 1.4 1.4.4c.2.1.4.2.4.5 0 .2 0 .4-.2.6l-1.2.9.1 1.5c0 .2-.1.4-.3.5-.2.1-.4.1-.6 0l-1.2-.9-1.5.3c-.2.1-.4 0-.5 0zm-.2-3.6.9 1.1c.1.1.2.4.1.5l-.4 1.3 1.3-.5c.2-.1.4 0 .5.1l1.2.8-.1-1.4c0-.2.1-.4.2-.5l1.1-.8-1.4-.4c-.2 0-.3-.2-.4-.4l-.3-1.3-.8 1.2c-.1.2-.3.3-.5.3h-1.4zm3.6 3.4zm-8.1 160.5-.1-.1c-.2-.1-.2-.4-.2-.6l.4-1.4-.9-1.1c-.1-.2-.2-.4-.1-.6.1-.2.3-.3.5-.3h1.5l.8-1.2c.1-.2.3-.3.6-.2s.4.2.5.4l.5 1.4 1.4.4c.2.1.4.2.4.4s0 .4-.2.6l-1.2.9.1 1.5c0 .2-.1.4-.3.5s-.4.1-.6 0l-1.2-.9-1.4.5c-.1-.1-.3-.1-.5-.2zm-.1-3.5.9 1.1c.1.1.2.4.1.5l-.4 1.3 1.3-.5c.2-.1.4 0 .5.1l1.2.8-.1-1.4c0-.2.1-.4.2-.5l1.1-.8-1.4-.4c-.2-.1-.3-.2-.4-.4l-.4-1.3-.8 1.2c-.1.2-.3.3-.5.3h-1.3zm3.6 3.4zm5.7-23.8-.1-.1c-.2-.1-.2-.4-.2-.6l.5-1.4-.9-1.1c-.1-.2-.2-.4-.1-.6.1-.2.3-.3.5-.3h1.5l.8-1.3c.1-.2.3-.3.6-.2s.4.2.5.4l.5 1.4 1.4.4c.2.1.4.2.4.4s0 .4-.2.6l-1.2.9.1 1.5c0 .2-.1.4-.3.5-.2.1-.4.1-.6 0L23 156l-1.4.5c-.3 0-.5 0-.6-.1zm-.2-3.5.9 1.1c.1.1.2.4.1.5l-.4 1.3 1.3-.5c.2-.1.4 0 .5.1l1.2.8-.1-1.4c0-.2.1-.4.2-.5l1.1-.8-1.4-.4c-.2-.1-.3-.2-.4-.4l-.5-1.3-.8 1.2c-.1.2-.3.3-.5.3h-1.2zm3.7 3.4zm94.7-67c-.1-.1-.2-.1-.2-.2-.3-.4-.4-1-.1-1.4l1.7-3.2-1.7-3.1c-.2-.5-.2-1 .1-1.4s.8-.6 1.3-.6l3.5.6 2.4-2.5c.4-.4.9-.5 1.4-.3s.9.6.9 1.1l.5 3.6 3.2 1.5c.5.2.8.7.8 1.2s-.3 1-.8 1.2l-3.2 1.6-.4 3.5c-.1.5-.4.9-.9 1.1-.5.2-1.1 0-1.4-.3l-2.5-2.6-3.4.7c-.4-.1-.8-.2-1.2-.5zm1.2-8.4 1.6 2.9c.2.4.2.9 0 1.3l-1.5 3 3.3-.6c.4-.1.9.1 1.2.4l2.4 2.4.4-3.4c.1-.4.3-.8.8-1l3-1.5-3-1.5c-.4-.2-.7-.6-.8-1l-.5-3.3L125 81c-.3.3-.8.5-1.2.4l-3.4-.5zm7 9.6zm-1.1 91.4c-.1-.1-.2-.1-.2-.2-.3-.4-.4-1-.1-1.4l1.7-3.2-1.7-3.1c-.2-.5-.2-1 .1-1.4s.8-.6 1.3-.6l3.5.6 2.4-2.5c.4-.4.9-.5 1.4-.4.5.2.9.6.9 1.1l.5 3.6 3.2 1.5c.5.2.8.7.8 1.2s-.3 1-.8 1.2l-3.2 1.6-.4 3.5c-.1.5-.4.9-.9 1.1-.5.2-1.1 0-1.4-.3l-2.5-2.6-3.4.7c-.4 0-.8-.1-1.2-.4zm1.2-8.4 1.6 2.9c.2.4.2.9 0 1.3l-1.5 3 3.3-.6c.4-.1.9.1 1.2.4l2.4 2.4.4-3.4c.1-.4.3-.8.8-1l3-1.5-3-1.5c-.4-.2-.7-.6-.8-1l-.5-3.3-2.3 2.4c-.3.3-.8.5-1.2.4l-3.4-.5zm7 9.6zm43.7-147.8c-.1 0-.2-.1-.3-.1-.5-.2-.8-.7-.7-1.3l.1-3.6-2.9-2c-.4-.3-.6-.8-.5-1.4.1-.5.5-.9 1-1.1l3.4-1 1-3.3c.2-.5.6-.9 1.1-.9.5-.1 1 .1 1.3.6l2 3h3.5c.5 0 1 .3 1.2.8s.2 1-.1 1.5l-2.2 2.8 1.1 3.3c.2.5 0 1-.4 1.4s-.9.5-1.4.3l-3.4-1.2-2.8 2.1c-.2.1-.6.2-1 .1zm-2.7-8 2.7 2c.4.3.6.7.6 1.1l-.1 3.3 2.7-2c.4-.3.8-.3 1.3-.2l3.2 1.2-1.1-3.2c-.1-.4-.1-.9.2-1.3l2-2.6h-3.3c-.4 0-.9-.2-1.1-.6l-1.9-2.8-1 3.2c-.1.4-.5.8-.9.9l-3.3 1zm10.5 5.5zM24.5 144.6c-.1 0-.2-.1-.3-.1-.5-.2-.8-.7-.7-1.3l.1-3.6-2.9-2c-.4-.3-.6-.8-.5-1.4.1-.5.5-.9 1-1.1l3.4-1 1-3.3c.2-.5.6-.9 1.1-.9.5-.1 1 .1 1.3.6l2 3h3.5c.5 0 1 .3 1.2.8s.2 1-.1 1.4l-2.2 2.8 1.1 3.3c.2.5 0 1-.3 1.4-.4.4-.9.5-1.4.3l-3.4-1.2-2.8 2.1c-.2.2-.7.3-1.1.2zm-2.6-8.1 2.7 2c.4.3.6.7.6 1.1L25 143l2.7-1.9c.4-.3.8-.3 1.3-.2l3.2 1.1-1.1-3.2c-.1-.4-.1-.9.2-1.3l2-2.6H30c-.5 0-.9-.2-1.1-.6l-1.9-2.8-1.1 3.2c-.1.4-.5.8-.9.9l-3.1.9zm10.5 5.6z" fill="#ffe1a6" stroke-width="none" opacity="0.73"></path><path id="SvgjsPath14727" d="M157.3 17.6h.1c.7-.1.7-1 0-1h-.1c-.7-.1-.7 1 0 1zm10.8-5.1c.3 0 .3-.5 0-.5-.4 0-.4.5 0 .5zm1.6 6.2c.2 0 .2-.3 0-.3-.2-.1-.2.3 0 .3zm12.9-7.4c0-.1 0-.1-.1-.2-.1-.2-.3-.2-.3 0 0 .1-.1.1-.1.2 0 .3.6.3.5 0zm.3-8c.2 0 .3 0 .4-.1.2-.1.2-.4 0-.6-.1-.1-.2-.1-.4-.1-.5.1-.5.8 0 .8zM191 17c0-.1 0-.1-.1-.2-.1-.2-.3-.2-.4 0 0 .1-.1.1-.1.2.1.4.7.4.6 0zm3.8-3.1c.3 0 .3-.4 0-.4-.2 0-.2.4 0 .4zm-80.5.7c.5 0 .5-.7 0-.7s-.5.7 0 .7zm-5.5 7.2c.3 0 .3-.5 0-.5-.3.1-.3.5 0 .5zm1.9-10.5c.3 0 .3-.5 0-.5s-.3.5 0 .5zm9.6 6.3c.1 0 .1-.1 0-.1s-.1.1 0 .1zm5.5-6.5c.3 0 .3-.4 0-.4s-.3.4 0 .4zm-.3-7.2c.3 0 .3-.4 0-.4s-.2.4 0 .4zm11.3 3.3c.3 0 .3-.4 0-.4s-.3.4 0 .4zM94.2 35.3c-.2 0-.3 0-.5.2-.1.1-.1.3 0 .4.1.2.3.2.5.2.5-.1.5-.7 0-.8zm2.9 14.4c.2 0 .2-.3 0-.3s-.2.3 0 .3zm5.5-1.8c.3 0 .3-.4 0-.4-.3-.1-.3.4 0 .4zM12.5 56c-.2 0-.2 0-.4.1s-.2.4 0 .5c.2 0 .2.1.4.1.3-.2.3-.8 0-.7zm-4-5.6c.3 0 .3-.5 0-.5s-.3.5 0 .5zm2.5-7c.1 0 .1-.1 0 0 0-.1 0 0 0 0zm22.5-25.7c0-.2 0-.2-.1-.4-.1-.3-.4-.3-.4-.1s-.1.2-.1.4c0 .4.6.4.6.1zm-2.1-7.1c.1 0 .1-.2 0-.2s-.1.2 0 .2zm-2.5.1c.2 0 .2-.4 0-.4s-.2.4 0 .4zm.7-5.7c.3 0 .3-.4 0-.4s-.3.4 0 .4zm5.7 5.4c.3 0 .3-.4 0-.4-.3-.1-.3.4 0 .4zm17.9-5.7c.3 0 .3-.5 0-.5s-.3.5 0 .5zM4.6 15.1c.3 0 .3-.5 0-.5s-.4.5 0 .5zm56.1 88.7c.3 0 .4 0 .6-.2v-.2c-.2-.2-.3-.3-.6-.2-.5-.2-.5.6 0 .6zm-38.9 18.1c.4 0 .4-.6 0-.6s-.4.6 0 .6zm3.9-6.6c.2 0 .2-.3 0-.3s-.2.3 0 .3zm-15.1-12.7c0-.2 0-.2-.1-.4-.1-.1-.3-.1-.4 0-.1.2-.1.2-.1.4-.1.6.7.6.6 0zm7.9-16.4c0-.2 0-.3-.1-.4-.1-.3-.4-.3-.5 0-.1.2-.1.2-.1.4 0 .5.8.5.7 0zm-1.6-10.5c-.1-.1-.3-.2-.4-.3-.1-.1-.3.1-.2.2.1.1.2.3.3.4.2.3.5-.1.3-.3zm-4.1 6.4c.2 0 .2-.4 0-.4s-.2.4 0 .4zm3.6-8.6c.2 0 .2-.3 0-.3s-.2.3 0 .3zm-4.6-2.1c.1 0 .1-.2 0-.2-.2-.1-.2.2 0 .2zm3.2-6.8c.1 0 .1-.2 0-.2-.2-.1-.2.2 0 .2zm164.5 35.6c.1-.1.2-.1.3-.2.2-.1.3-.3.2-.5v-.1c0-.1-.1-.2-.2-.2h-.1c-.2 0-.4 0-.5.2-.1.1-.1.2-.2.3-.3.2.2.7.5.5zm3-5c.4 0 .4-.7 0-.7s-.4.7 0 .7zm2.2 3c.2 0 .2-.3 0-.3s-.2.3 0 .3zm3.9-5.8c.1 0 .1-.2 0-.2s-.2.2 0 .2zm6.1-8.1c.1 0 .2-.1.3-.1s.1-.2 0-.2-.2-.1-.3-.1c-.3-.2-.3.6 0 .4zm-51.5-4.4c.5 0 .5-.8 0-.8s-.5.8 0 .8zm-4 7.5c.1-.1.2-.3.3-.4s-.1-.3-.2-.2c-.1.1-.3.2-.4.3-.5.2 0 .7.3.3zm4.7-3.5c.2 0 .2-.3 0-.3s-.1.3 0 .3zm4-4.3c.2 0 .2-.3 0-.3-.3 0-.3.3 0 .3zm-39.7 6.7c.2 0 .3 0 .5-.1s.2-.4 0-.5-.3-.1-.5-.1c-.5-.1-.5.6 0 .7zm-6.4 8.1c.4 0 .4-.7 0-.7s-.5.7 0 .7zm-5-3.6c.3 0 .3-.5 0-.5s-.3.5 0 .5zm6.8-6.6c.2 0 .2-.3 0-.3-.2.1-.2.3 0 .3zm-1.8 5.4c.2 0 .2-.2 0-.2s-.2.2 0 .2zm-11.1 10c.2 0 .2-.3 0-.3s-.2.3 0 .3zm17.5-1c.3 0 .3-.4 0-.4s-.3.4 0 .4zM31.9 193c.1 0 .2-.1.3-.1.1-.1.1-.3 0-.4-.1 0-.2-.1-.3-.1-.6-.3-.6.9 0 .6zm1.3-8.8c.2 0 .3 0 .5-.1s.2-.5 0-.6-.3-.1-.5-.1c-.5 0-.5.7 0 .8zm1.1 4.8c.2 0 .2 0 .4-.1s.2-.3 0-.3-.2-.1-.4-.1c-.4 0-.4.6 0 .5zm3.7-4.5c0-.1 0-.3-.1-.4 0-.1-.3-.1-.3 0s0 .2-.1.4c.1.3.6.3.5 0zm.2-5.5c.2 0 .2-.4 0-.4-.3 0-.3.4 0 .4zm3.9 6.1c.3 0 .3-.5 0-.5s-.3.5 0 .5zm-9.3-20.4c.3 0 .3-.4 0-.4-.2 0-.2.4 0 .4zm-21.1 22c-.2-.2-.3-.4-.6-.4-.1 0-.3.1-.3.3 0 .3.1.4.4.6.3.4.8-.1.5-.5zM25 165.8c.3 0 .3-.5 0-.5s-.4.5 0 .5zm107.5-37.9c-.1-.1-.1-.2-.2-.4s-.3-.2-.4 0c-.1.1-.1.2-.2.4-.1.7 1 .7.8 0zm-14.7 20.8c.3 0 .3-.5 0-.5s-.3.5 0 .5zm11.8 5.5c.6 0 .6-.9 0-.9s-.5.9 0 .9zm0 8.4c.4 0 .4-.6 0-.6-.3.1-.3.6 0 .6zm-5 6c.2 0 .2-.3 0-.3s-.2.3 0 .3zm-6.8 1.8c.3 0 .3-.4 0-.4s-.2.4 0 .4zm24.3 13.4c.2 0 .3 0 .4-.1.3-.1.3-.5 0-.6-.2-.1-.2-.1-.4-.1-.5 0-.5.8 0 .8zm7.9 10.3c.4 0 .4-.7 0-.7s-.4.7 0 .7zm7.9-8.2c.4 0 .4-.6 0-.6s-.4.6 0 .6zm4.2 7c.3 0 .3-.4 0-.4-.2 0-.2.4 0 .4zm10.1-2.3s0-.1 0 0c-.1-.1-.1 0 0 0zm-16.8-3.1c.2 0 .2-.3 0-.3s-.2.3 0 .3zm3.2-4.3c.2 0 .2-.3 0-.3s-.2.3 0 .3zm-47.6 3.6.3-.9c.1-.3-.3-.5-.5-.3s-.4.4-.5.7c-.2.6.5 1 .7.5zm62.1-57.4c.1-.2.2-.3.3-.5s-.1-.5-.4-.4c-.2.1-.3.2-.5.3-.3.4.3 1 .6.6zm-4.9 12.1c0-.2-.1-.2-.1-.4-.1-.1-.3-.1-.4 0-.1.2-.1.2-.1.4-.2.6.7.6.6 0zm4.3-6.8c.3 0 .3-.4 0-.4-.3-.1-.3.4 0 .4zm5-3.3c.2 0 .2-.3 0-.3s-.2.3 0 .3zm2.2-4.5c.4 0 .4-.6 0-.6s-.4.6 0 .6z" fill="#ffd86c" stroke-width="none" opacity="1"></path></g><g id="svga-group-humanwrap-move" transform="matrix(1,0,0,1,0,0)"><g id="svga-group-humanwrap"><g id="svga-group-hair-back-move" transform="matrix(1,0,0,1,0,0)"><g id="svga-group-hair-back"></g></g><g id="svga-group-humanbody-back"><path id="SvgjsPath8731" d="M180.8 184.9c-2.3-3.4-38.9-17.8-38.9-17.8l-13.4-5.2-5.6-68.8H76.8L71.3 162l-13.4 5.2S21.4 181.6 19 185c-2.3 3.4-3.3 14.9-3.3 14.9V219h168.5v-19.2c-.1.1-1-11.5-3.4-14.9z" fill="#ffd0bc" stroke-width="none" opacity="1" stroke="none"></path></g><g id="svga-group-chinshadow-single"><path id="SvgjsPath8727" d="M73 146.3c5.5 2.6 6.6 7.4 9 10.8 2.4 3.4 12.1 3.7 12.1 3.7s9.7-.2 12-3.6c2.4-3.4 3.4-8.2 9-10.8 2.87-1.36 7.58-3.19 11.72-5.63l-3.88-47.67H76.82l-4.22 53.02c.13.06.28.12.4.18z" fill="#e09879" stroke-width="none" opacity="1" stroke="none"></path></g><g id="svga-group-humanbody-front"><path id="SvgjsPath8732" d="M184.5 219c-.1-6.4-.1-12.8-.1-19.2l-.3-.1s.1-.1.2 0c.1 0 .1.1.1.1v-.4l-.1-.5-.1-.9-.2-1.9c-.2-1.3-.4-2.5-.6-3.8-.2-1.3-.5-2.5-.9-3.8-.4-1.2-.8-2.5-1.5-3.6-.8-.9-1.9-1.5-2.9-2.1-1-.6-2.1-1.1-3.2-1.7-2.1-1.1-4.3-2.1-6.5-3.1-4.4-2-8.7-3.9-13.1-5.7-4.4-1.9-8.8-3.7-13.2-5.5l-13-5.2-1.2-16.9c-.4-5.7-.9-11.5-1.3-17.2l-1.3-17.2-1.5-17.3-.1-.8h-.8c-7.7 0-15.4.1-23.1.1l-23.1.2h-.5v.5L75 110.2l-1.3 17.2c-.8 11.4-1.8 22.8-2.8 34.2-5.6 2.1-11.2 4.2-16.7 6.4-5.6 2.2-11.2 4.5-16.8 6.9-2.8 1.2-5.6 2.4-8.3 3.6-2.8 1.3-5.5 2.5-8.2 4.1-.7.4-1.3.8-2 1.4-.2.1-.4.4-.5.6l-.3.6c-.2.4-.4.7-.5 1.1-.6 1.5-1 3-1.3 4.5-.6 3-1.1 6-1.4 9.1l-.1 19.1v.9h.9l42.1.1H100c14 0 28.1-.1 42.1-.2l42.1-.5h.3v-.3zm-84.5-1-42.1-.1-41.2.1-.1-18.1c.3-3 .6-5.9 1.2-8.9.3-1.4.6-2.9 1.1-4.2.1-.3.3-.7.4-.9l.2-.4.3-.3c.5-.4 1.1-.8 1.8-1.2 2.5-1.5 5.3-2.8 8-4.1 2.7-1.3 5.5-2.5 8.2-3.7 5.5-2.4 11.1-4.8 16.7-7.1s11.2-4.5 16.9-6.7l.2-.1v-.2c.9-11.5 1.7-23 2.7-34.4l1.4-17.2 1.5-16.7 22.6.2c7.4.1 14.8.1 22.3.1l1.3 16.4 1.5 17.2c.5 5.7 1 11.5 1.5 17.2l1.6 17.2v.3l.3.1 13.4 5c4.4 1.7 8.9 3.4 13.3 5.2 4.4 1.8 8.8 3.7 13.2 5.6 2.2 1 4.3 2 6.5 3 1.1.5 2.1 1.1 3.2 1.6 1 .6 2.1 1.2 2.9 2 .7 1.1 1.1 2.3 1.4 3.5.3 1.2.6 2.5.8 3.7.2 1.3.4 2.5.6 3.8l.2 1.9.1.9.1.5v.4c0 6.3 0 12.6-.1 18.9l-41.8-.5c-14 .1-28.1 0-42.1 0z" fill="#d17f5b" stroke-width="none" opacity="1" stroke="none"></path><path id="SvgjsPath8733" d="M125.1 142.4s-1.8 23-9.1 32.9c0 0 7.9-25 9.1-32.9zm-34.5 16s5 7.9 11.5 10.1c0 0-9.5 2.2-11.5-10.1zM73.4 140c6.7 25.6 6.7 25.6 8.5 30.7 0 0 .4-12.6-8.5-30.7z" fill="#e09879" stroke-width="none" opacity="1" stroke="none"></path></g><g id="svga-group-clothes-single"><path id="SvgjsPath13978" d="M10.9 220c0-15.2 1.2-32.2 2.3-34.1 1-1.9 5-3.3 5-3.3s3.5-2.9 7.1-4.8c3.5-1.9 15.7-3.9 15.7-3.9s0-1 .4-1.9 1.9-1.2 5-5.2 2.1-4.8 2.7-6.7c.6-1.9 4.4-1.5 4.4-1.5s.4-6 4.8-10c4.4-3.9 13.6-6.6 13.6-6.6s-.1 6.9-.1 11.3-1.3 4.6 5.1 12.6c6.5 7.9 12.4 15.1 15.4 17 3.1 1.9 7.2 4 9.1 9.5 0 0 1.7-4.4 3.7-5.9s6.2-6 7.9-7.7c1.7-1.7 5.3-8.1 7.5-9.5 2.2-1.5 7.4-6.5 8.3-7.9s-.9-21.7-.9-21.7 6.9 3.7 9.4 5.4c2.5 1.7 4.9 9.5 4.9 9.5s2.4 2.1 5.1 4.1 4.7 2.9 6.2 5.7c1.5 2.8.8 5.3 1.4 6.5.6 1.1 1.2 2 1.6 2.6 0 0 17.1 5.1 20 6.4s5.7 4 5.7 4 3.1 1.9 3.9 9.8 1.8 26.4 1.8 26.4l-177-.1z" fill="#386e77" stroke-width="none" opacity="1"></path><path id="SvgjsPath13979" d="m188.6 219.9-1.2-18.6c-.2-3.1-.4-6.2-.9-9.3-.2-1.6-.6-3.2-1.2-4.7-.3-.8-.7-1.5-1.1-2.2-.2-.4-.5-.7-.8-1-.3-.3-.5-.6-.9-.9-1.5-1.4-3.1-2.6-4.9-3.6-.9-.5-1.9-.9-2.8-1.2l-2.8-1.1-15.3-4.3c-.5-.8-1.1-1.6-1.4-2.4-.1-.3-.2-.8-.2-1.3s-.1-1-.1-1.6c-.2-2.2-1.2-4.3-2.7-5.9-1.6-1.6-3.4-2.6-5.1-3.8-1.6-1.1-3.2-2.4-4.7-3.7-.6-1.7-1.2-3.3-1.9-4.9-.4-.8-.8-1.6-1.3-2.4-.5-.8-1-1.6-1.9-2.2-1.5-1-3.1-1.9-4.7-2.8-1.6-.9-3.2-1.7-4.8-2.6l-.7-.4s.7 11.7 1 17.3c0 1.4.4 3 .3 4.3 0 .2 0 .3-.1.5 0 .1 0 .1-.1.2l-.1.2c-.2.3-.4.5-.6.8-.4.5-.9 1-1.4 1.5-2 2-4 3.9-6.2 5.6-1.1.9-2 2.1-2.8 3.2-.8 1.1-1.6 2.3-2.4 3.4-.4.6-.8 1.1-1.2 1.7-.4.6-.8 1.1-1.4 1.5-1.1.8-3.5 4.2-6.3 6.5-.6.4-1.2.7-1.8 1.3-.5.5-.9 1.1-1.3 1.7-.6.9-1.1 1.8-1.5 2.8-.9-2.2-2.5-4.3-4.4-5.8-1.1-.9-2.2-1.6-3.4-2.4-1.2-.7-2.1-1.7-3.2-2.5-4.4-4-4.4-6-8.3-9.7-1.9-1.9-3.6-4.1-5.2-6.2-.8-1.1-1.7-2.1-2.4-3.2-.8-1.1-1.4-2.2-1.8-3.4-.4-1.1-.2-2.4-.1-3.8l.1-4.1.1-8.1v-1.2l-1.2.3c-2.2.6-4.3 1.4-6.3 2.3-2.1.9-4.1 1.9-6 3.2-1.9 1.3-3.6 3.1-4.6 5.2-1 1.8-1.6 3.8-1.9 5.8-.7 0-1.4.1-2.2.2-.5.1-1 .3-1.5.7-.2.2-.5.5-.6.8-.2.3-.2.6-.3.8-.1.5-.2 1-.2 1.4 0 .4-.1.8-.2 1.1-.2.7-.7 1.5-1.1 2.2-1 1.4-2.1 2.8-3.3 4-.6.6-1.2 1.1-2 1.8-.2.2-.4.4-.6.7-.2.3-.2.5-.3.8-.1.3-.2.6-.2 1-1.5.4-7.5.9-9 1.4-1.6.6-3.2 1.1-4.8 1.8-1.6.7-3.1 1.6-4.5 2.6-1.4.9-2.7 1.9-4 3-1.6.7-3.1 1.4-4.4 2.6-.3.3-.6.7-.9 1.2-.2.5-.2.9-.3 1.3-.2.9-.3 1.7-.4 2.5-.4 3.4-.6 6.7-.8 10.1-.2 3.4-.3 6.7-.3 10.1 0 1.7-.1 3.4-.1 5 0 1.7 0 3.3.1 5.1l43.9.4 44.2.3c14.7.1 29.5.1 44.3.2 14.8 0 29.6.1 44.4 0h1.1l-.1-1.1zm-85-30.9c.4-.6.8-1.1 1.2-1.6.4-.5 1-.8 1.6-1.2 2.4-1.4 3.4-4.9 12.8-9.5 3.2-1.6 6-3.6 8.7-5.7 1.4-1.1 2.7-2.2 4-3.3.6-.6 1.3-1.2 1.8-2s.9-1.6 1.3-2.4c.7-1.7 1.1-3.4 1.2-5.2 0-.4 0-.9-.1-1.4-.1-.4-.2-.9-.4-1.3-.3-.8-.7-1.6-1.2-2.3.3.8.5 1.6.7 2.5.1.8.2 1.6 0 2.4-.3 1.6-.9 3.2-1.7 4.6-.4.7-.8 1.4-1.3 2-.5.6-1.1 1.1-1.7 1.7-1.3 1.1-2.6 2.1-3.9 3.2-1.3 1.1-2.7 2.1-4.1 3.1l-2.1 1.5c-.7.5-1.4.9-2.1 1.4-1.5.9-2.9 1.9-4.4 2.9.1-.1.1-.2.2-.2.4-.6.8-1.1 1.2-1.7.8-1.1 1.6-2.3 2.4-3.4.8-1.1 1.7-2.3 2.7-3.1 2.3-1.6 4.3-3.6 6.3-5.6l1.5-1.5c.2-.3.5-.5.7-.8 0 0 2-2.5 2.4-3.6.5-1.3.8-2.7.7-4.2-.2-1.4-.9-5.1-1.6-6.4-.5-1.1-2-4.9-2.2-7.2 1.4.8 2.7 1.5 4.1 2.3 1.6.9 3.1 1.8 4.6 2.8.6.4 1.1 1.2 1.6 1.9.4.8.8 1.5 1.2 2.4.7 1.6 1.3 3.3 1.9 5l.1.1.1.1c.1 0 .1.1.1.1v.1c0 1.1-.1 2.3-.3 3.4-.3 2.2-1 4.4-1.8 6.5-1.5 4.2-3.9 8.1-7.5 10.4-.9.6-1.8 1.1-2.9 1.7l-3 1.8-5.8 3.6c-1 .6-1.9 1.1-2.9 1.6-.5.2-1 .5-1.5.6-.5.2-1.1.3-1.6.4-2.2.6-4.4 1.2-6.6 1.9 2.3-.3 4.6-.6 6.8-.9.6-.1 1.1-.1 1.7-.3.6-.1 1.2-.3 1.7-.6 1.1-.4 2.1-1 3.2-1.5 2.1-1.1 4-2.3 6-3.4 1-.6 2-1.1 3-1.7 1-.5 2.1-1.1 3-1.8 2-1.4 3.7-3.1 5-5.1 1.3-2 2.2-4.2 2.9-6.5.7-2.2 1.1-4.5 1.2-6.9 0-1 0-2.1-.1-3.1 1.3 1.2 2.7 2.3 4.1 3.3 1.7 1.2 3.5 2.2 4.8 3.6 1.3 1.4 2.1 3.2 2.3 5.2.1.5.1 1 .1 1.5s0 1 .3 1.7c-.8.9-1.6 1.9-2.3 2.8-.9 1.2-1.9 2.3-2.8 3.4-1.9 2.1-4.2 4.2-6.1 6.6 1.5-.6 2.8-1.4 4.1-2.2 1.3-.9 2.5-1.9 3.5-3 1.1-1.2 1.9-2.5 2.6-3.9.5-1 1-2 1.3-3.1.4.8.9 1.6 1.4 2.2l.1.2h.1c-1.5 2.2-3 4.4-4.7 6.6-1.8 2.3-3.7 4.6-5.9 6.4-2.3 1.8-4.8 3.2-7.5 4.3-2.7 1.1-5.4 2.1-8.2 2.9-2.8.8-5.7 1.3-8.6 1.8-2.9.5-5.7 1.2-8.6 1.6-3.4.6-4.8.5-5.1.5 0-1.1-.1-2.1-.3-2.8.6-.3 1.4-.9.1-1.4-1.6-.5-3.1.2-3.1.9-.1.6.5.7 1.1.7.2.6.2 1.3.2 2.1-.3-.1-.6-.3-.8-.5-.5-.4-.9-.8-1.3-1.3-.3-.5-.7-1.1-.8-1.6l-.6-2.1c.6-.9 1.1-2 1.8-3zm-61.9-14.6v-.6c0-.3.1-.8.2-1.1 0-.2.1-.4.2-.4 0-.1.1-.2.3-.3.6-.5 1.4-1.1 2-1.8 1.3-1.3 2.5-2.7 3.5-4.2.5-.8 1-1.6 1.3-2.6.3-1 .3-2 .5-2.7 0-1.1 1.6-1.3 3.1-1.3 0 .6.1 1.1.1 1.7.4 3.3 1.5 6.6 3.1 9.6 1.7 2.9 3.9 5.6 6.5 7.6 2.6 2.1 5.6 3.7 8.7 4.7-2.8-1.8-5.4-3.7-7.7-5.9s-4.3-4.7-5.8-7.4c-.8-1.4-1.4-2.8-2-4.3-.6-1.5-1-3-1.3-4.5-.1-.5-.2-1.1-.3-1.6l.1-.6c.2-2 .9-4.1 1.9-5.9 1-1.9 2.4-3.4 4.1-4.6 1.7-1.2 3.7-2.1 5.7-3 1.6-.7 3.3-1.3 5-1.9 0 0-1.7 4.2-2.2 5.1-.7 1.1-1 2.6-.7 3.9.1.7.3 1.3.6 1.8.2.6.5 1.1.8 1.6.4.7 3 5.6 3.8 6.8.8 1.1 1.7 2.2 2.5 3.3 1.7 2.1 3.6 4.9 5.6 6.8 4.1 4 3.8 6.3 8.3 9.4 1.1.8 2.3 1.5 3.5 2.2 1.2.7 2.3 1.4 3.3 2.2 2.1 1.6 3.7 3.8 4.6 6.3l.1.3-.4 1.1c-.2.6-.5 1.3-.9 1.8-.4.6-.8 1-1.2 1.1-.1 0-.2.1-.4.1h-1.3c0-.1.1-.2.1-.3.3-.6.6-1.2.8-1.5.4.1.9 0 1-.3.2-.5-.6-2.1-1.6-2-.9 0-1.3.3-.5 1.4-.6.6-1.3 1.5-1.8 2.8h-.6c-3.1-.1-6.1-.4-9.2-.7-3.1-.4-6.1-.7-9-1.5-2.9-.8-15.6-7.5-21.2-10-2.8-1.2-5.7-2.4-8.3-4.1-1.3-.9-2.5-1.8-3.5-3-.8-.9-1.6-2.1-1.9-3.3l.5-.2zm102 44.6c-14.7 0-29.3.1-44 .2l-44.2.3-44.5.4c.1-1.6.1-3.3.2-5l.2-5c.1-3.4.3-6.7.6-10.1.2-3.3.6-6.7 1-10 .1-.8.2-1.6.4-2.4.1-.4.2-.8.3-1.1.1-.3.4-.6.6-.8 1.1-1 2.7-1.8 4.2-2.4h.1l.1-.1c1.3-1 2.7-2 4.1-2.9 1.4-.9 2.8-1.8 4.3-2.4 3-1.3 10.9-2.2 14.1-3.1.3 1.3 1 2.4 1.8 3.5 1 1.2 2.2 2.3 3.4 3.2 2.5 1.9 5.4 3.2 8.2 4.5 5.6 2.7 18.2 9.9 21.2 10.8 1.5.4 3.1.8 4.6 1s3.1.5 4.6.7c3.1.4 6.2.6 9.3.8h.2v.1c-.3 2.9 1.6 8.7 2 12.1s-1 6.8-.3 7 2.5.9 2.8-.2c.3-1.1.6-10.9-.9-13.9-.9-1.8-1.3-3.6-1.3-5.1H98.5c.2 0 .5-.1.8-.1 1.1-.3 1.8-1.2 2.3-1.9.1-.1.1-.2.2-.3 0 .1.1.1.1.2.5.7 1.1 1.3 1.8 1.8.6.4 1.2.7 1.8.9-.1.5-.1.9-.2 1.3-.4 1.9-2 3.1-1.2 7.2s3.1 6.1 3.4 7.7c.3 1.6.4 2.9 1 2.9s2.4-.7 2.7-1.6-.8-3.5-2.3-5.4c-1.5-1.9-2.8-4.6-2.8-6.1 0-1.3.9-3.7 1.3-5.7 6.7-.6 11.3-1.8 14.2-2.3s5.8-1.2 8.6-2c2.9-.9 5.6-1.9 8.3-3.2 2.7-1.3 5.3-2.8 7.6-4.8 2.2-2 4.1-4.4 5.8-6.8 1.6-2.2 3-4.5 4.3-6.9h.1l15.4 4.5 2.7 1.1c.9.4 1.8.8 2.6 1.2 1.6.9 3.2 2.1 4.6 3.4l.1.1.6.6.6.9c.4.6.7 1.3.9 1.9.5 1.4.9 2.8 1.1 4.3.4 3 .6 6.1.8 9.2.4 5.8.7 11.7 1.1 17.5-14.5.2-28.8.2-43.1.3zM32.8 203.3c-.3-1.8-1-3.3-1.7-4.7-1.5-2.9-3.2-5.6-5.1-8.2-1-1.3-1.9-2.6-3.1-3.7-1.2-1.1-2.5-2.1-4.1-2.6 1.4.8 2.5 2 3.4 3.2.9 1.2 1.7 2.6 2.6 3.9 1.6 2.7 3.2 5.4 4.6 8.2.7 1.4 1.4 2.8 1.6 4.1.3 1.5.4 3.1.6 4.6.3 3.1.6 6.3 1.1 9.5.4-3.2.5-6.4.4-9.6 0-1.4-.1-3-.3-4.7zm142.4-17.5c-.9.2-1.8.7-2.4 1.4-.6.7-1.1 1.5-1.5 2.2-1.8 2.8-3.6 5.7-5.2 8.7-.4.8-.7 1.6-1.1 2.4-.2.4-.3.8-.4 1.3-.1.4-.2.9-.3 1.3-.2 1.7-.4 3.4-.4 5.1-.1 3.4-.1 6.8.1 10.1.6-3.3 1-6.7 1.5-10 .2-1.6.4-3.3.7-4.9.3-1.5 1-3 1.7-4.4 1.5-3 3.2-5.8 4.7-8.9.4-.8.7-1.5 1.1-2.1.4-.6 1-1 1.7-1.3.7-.3 1.6-.4 2.4-.8.8-.3 1.6-.8 2.2-1.3-.8.4-1.6.6-2.4.8-.7.2-1.5.2-2.4.4z" fill="#184f58" stroke-width="none" opacity="1"></path><path id="SvgjsPath13980" d="M173.1 180.5c-3.5-1.5-13.8-3-16.4-4.8 0 0 11.8 6.1 15.9 7.4 4.1 1.3 7.2.9 7.2.9s-3.2-2-6.7-3.5zm-32.6-24.6c0-3.2-2.4-7.4-4.1-9.5s-5.4-3.2-6.9-4.3c0 0 .9.9 2.6 2.8 1.7 1.9 5 6.7 5.6 10.6.6 3.9-2.6 11.3-4.8 14.1s-10.8 7.2-14.8 9.5c-3.9 2.4-7.5 5.6-12.1 8.2s-3 6.9-3 6.9.7-2.6 2.2-4.6 7.3-6.1 11.6-7.4c4.3-1.3 14.3-7.4 18.2-11.1 3.9-3.4 5.5-11.9 5.5-15.2zm3.2 2.2s1.9 3 3.2 4.8c1.3 1.7 2.4 5.9-1.5 12.4s-15 13.2-15 13.2 9.5-4.3 12.6-6.5c3-2.2 8.9-9.5 9.3-11.3.4-1.7-.2-4.8-1.5-6.9-1.2-2.2-6.2-4.8-7.1-5.7zm-59.3 22.6c-3.9-3-11.4-13.2-14.4-17.1-3-3.9-3.2-8-3.5-10.8 0 0-2.4 2.6-2.8 4.8s-.4 5.9 3.2 8.9c3.7 3 17.5 18 22.7 20.4 5.2 2.4 9.3 5.9 9.3 5.9s-1.1-2.6-2.4-3.9c-1.3-1.5-8.2-5.2-12.1-8.2zM60 185.4c3.9 1.5 14.5 6.3 17.3 7.4s15.1 3 15.1 3-11.8-3.9-15.8-5.6c-3.8-1.7-16.6-4.8-16.6-4.8z" fill="#4d7e86" stroke-width="none" opacity="1"></path></g><g id="svga-group-head" transform="matrix(1,0,0,1,0,0)"><g id="svga-group-ears-left-move" transform="matrix(1,0,0,1,0,0)"><g id="svga-group-ears-left"><path id="SvgjsPath8631" d="M70.01 81.26s-3.24-4.86-12.55-8.1c0 0-3.1-.67-10.39 10.66 0 0-1.35 5.94 5.13 15.65 0 0 6.34 3.37 16.73-1.21 0 0 4.72-7.69 1.08-17z" fill="#ffd0bc" stroke-width="none" opacity="1" stroke="none"></path><path id="SvgjsPath8632" d="M68.66 90.08s-5.67-8.43-10.93-11.38c0 0-3.51 2.67-6.48 7.73 0 0 2.97 6.89 4.45 8.71 0 0 3.64 1.41 11.2-.56l1.76-4.5z" fill="#f0b399" stroke-width="none" opacity="1" stroke="none"></path><path id="SvgjsPath8633" d="M46.91 83.79c-.12.72-.12 1.43-.08 2.13.03.71.12 1.41.22 2.1.23 1.39.63 2.75 1.08 4.08.45 1.34 1.04 2.62 1.65 3.9.32.63.66 1.25 1 1.87l1.1 1.81.05.08.09.04c1.39.67 2.82.98 4.28 1.17 1.46.18 2.94.17 4.4.04 1.46-.13 2.9-.44 4.3-.84.71-.19 1.39-.45 2.08-.68l2.03-.82.13-.05.07-.12c.77-1.34 1.25-2.75 1.64-4.19.39-1.44.58-2.93.62-4.41.04-1.48-.04-2.97-.34-4.41-.21-1.46-.68-2.86-1.19-4.24-.75-1.04-1.67-1.91-2.62-2.75-.96-.83-1.97-1.6-3.03-2.3-1.06-.7-2.17-1.33-3.3-1.9-1.14-.58-2.32-1.04-3.51-1.49l-.03-.01h-.02c-.53-.05-.8.08-1.15.19-.32.12-.62.29-.91.46-.56.36-1.08.76-1.57 1.19-.98.85-1.83 1.83-2.63 2.82-1.61 2-2.97 4.15-4.35 6.28l-.02.03.01.02zm.32.09c.7-1.04 1.4-2.08 2.17-3.07.76-1.01 1.55-1.99 2.39-2.94.84-.93 1.7-1.85 2.64-2.66.47-.4.96-.78 1.48-1.09.26-.16.52-.29.79-.4.24-.1.57-.18.69-.18l1.73.62 1.73.71c1.15.49 2.28 1.03 3.37 1.66 1.08.63 2.15 1.3 3.12 2.09.97.79 1.9 1.66 2.65 2.66.47 1.38.89 2.78 1.07 4.23.2 1.44.19 2.91.05 4.35-.13 1.44-.45 2.86-.87 4.23-.4 1.33-.96 2.63-1.61 3.8l-1.83.73c-.67.21-1.34.46-2.02.64-1.36.38-2.75.65-4.14.82-1.4.15-2.81.18-4.21.04-1.35-.15-2.75-.43-3.95-.95l-1.08-1.65-1.06-1.79c-.66-1.22-1.3-2.46-1.79-3.76-.51-1.29-.92-2.63-1.17-4-.27-1.35-.38-2.76-.15-4.09z" fill="#f0b399" stroke-width="none" opacity="1" stroke="none"></path><path id="SvgjsPath8634" d="M52.21 84.06c.46-.6.96-1.16 1.45-1.73 1.01-1.12 2.05-2.19 3.12-3.26l.12-.12.16.12c.9.67 1.74 1.43 2.52 2.24.77.82 1.44 1.71 2.09 2.62 1.27 1.84 2.38 3.77 3.26 5.82l-.08.04c-1.24-1.84-2.49-3.65-3.81-5.4-.66-.87-1.34-1.73-2.03-2.57-.66-.79-1.34-1.57-2.09-2.27-1.1.89-2.11 1.91-3.01 3-.91 1.1-1.7 2.31-2.27 3.59.53 1.19 1.08 2.38 1.66 3.54.53 1.03 1.08 2.07 1.7 3.01.68-.6 1.35-1.23 1.97-1.88.72-.77 1.38-1.61 1.82-2.53-.13-.47-.36-.96-.61-1.42a7.38 7.38 0 0 0-1.01-1.36l.06-.07c.46.35.88.77 1.24 1.23.18.23.35.48.49.74.15.26.28.52.39.83l.02.07-.03.1c-.36 1.14-1.06 2.08-1.76 2.96-.72.89-1.51 1.68-2.37 2.45l-.39.34-.31-.42c-.85-1.16-1.45-2.4-2.02-3.65-.58-1.25-1.09-2.51-1.56-3.8l-.06-.15.07-.12c.38-.72.81-1.35 1.27-1.95z" fill="#d17f5b" stroke-width="none" opacity="1" stroke="none"></path></g></g><g id="svga-group-ears-right-move" transform="matrix(1,0,0,1,0,0)"><g id="svga-group-ears-right"><path id="SvgjsPath8635" d="M129.99 81.26s3.24-4.86 12.55-8.1c0 0 3.1-.67 10.39 10.66 0 0 1.35 5.94-5.13 15.65 0 0-6.34 3.37-16.73-1.21 0 0-4.72-7.69-1.08-17z" fill="#ffd0bc" stroke-width="none" opacity="1" stroke="none"></path><path id="SvgjsPath8636" d="M131.34 90.08s5.67-8.43 10.93-11.38c0 0 3.51 2.67 6.48 7.73 0 0-2.97 6.89-4.45 8.71 0 0-3.64 1.41-11.2-.56l-1.76-4.5z" fill="#f0b399" stroke-width="none" opacity="1" stroke="none"></path><path id="SvgjsPath8637" d="m153.08 83.76-.02-.03c-1.38-2.13-2.74-4.29-4.35-6.28-.8-1-1.65-1.97-2.63-2.82-.49-.43-1-.84-1.57-1.19-.28-.18-.58-.34-.91-.46-.35-.11-.63-.24-1.15-.19h-.02l-.03.01c-1.19.45-2.38.92-3.51 1.49-1.14.58-2.24 1.2-3.3 1.9-1.06.7-2.07 1.47-3.03 2.3-.95.84-1.86 1.71-2.62 2.75-.51 1.38-.98 2.78-1.19 4.24-.29 1.45-.38 2.93-.34 4.41.04 1.48.23 2.97.62 4.41.39 1.45.87 2.85 1.64 4.19l.07.12.13.05 2.03.82c.69.22 1.38.49 2.08.68 1.41.4 2.84.7 4.3.84 1.46.13 2.94.14 4.4-.04 1.47-.19 2.9-.49 4.28-1.17l.09-.04.05-.08 1.1-1.81c.33-.62.68-1.24 1-1.87.61-1.27 1.2-2.56 1.65-3.9.45-1.33.85-2.69 1.08-4.08.11-.7.19-1.4.22-2.1.04-.71.04-1.41-.08-2.13l.01-.02zm-.43 4.21c-.25 1.37-.65 2.71-1.17 4-.49 1.3-1.13 2.54-1.79 3.76l-1.06 1.79-1.08 1.65c-1.21.52-2.6.81-3.95.95-1.4.14-2.81.11-4.21-.04-1.4-.17-2.78-.44-4.14-.82-.68-.18-1.35-.43-2.02-.64l-1.83-.73c-.65-1.18-1.21-2.48-1.61-3.8-.42-1.38-.74-2.79-.87-4.23-.14-1.44-.15-2.9.05-4.35.17-1.45.6-2.85 1.07-4.23.74-1 1.67-1.88 2.65-2.66.98-.79 2.04-1.46 3.12-2.09 1.09-.62 2.22-1.16 3.37-1.66l1.73-.71 1.73-.62c.11 0 .45.08.69.18.26.12.53.25.79.4.51.31 1.01.68 1.48 1.09.94.81 1.8 1.73 2.64 2.66.83.94 1.63 1.93 2.39 2.94.77.99 1.47 2.03 2.17 3.07.2 1.33.09 2.74-.15 4.09z" fill="#f0b399" stroke-width="none" opacity="1" stroke="none"></path><path id="SvgjsPath8638" d="M147.79 84.06c-.46-.6-.96-1.16-1.45-1.73a87.123 87.123 0 0 0-3.12-3.26l-.12-.12-.16.12c-.9.67-1.74 1.43-2.52 2.24-.77.82-1.44 1.71-2.09 2.62-1.27 1.84-2.38 3.77-3.26 5.82l.08.04c1.24-1.84 2.49-3.65 3.81-5.4.66-.87 1.34-1.73 2.03-2.57.66-.79 1.34-1.57 2.09-2.27 1.1.89 2.11 1.91 3.01 3 .91 1.1 1.7 2.31 2.27 3.59-.53 1.19-1.08 2.38-1.66 3.54-.53 1.03-1.08 2.07-1.7 3.01-.68-.6-1.35-1.23-1.97-1.88-.72-.77-1.38-1.61-1.82-2.53.13-.47.36-.96.61-1.42.28-.49.62-.94 1.01-1.36l-.06-.07c-.46.35-.88.77-1.24 1.23-.18.23-.35.48-.49.74-.15.26-.28.52-.39.83l-.02.07.03.1c.36 1.14 1.06 2.08 1.76 2.96.72.89 1.51 1.68 2.37 2.45l.39.34.31-.42c.85-1.16 1.45-2.4 2.02-3.65.58-1.25 1.09-2.51 1.56-3.8l.06-.15-.07-.12c-.38-.72-.81-1.35-1.27-1.95z" fill="#d17f5b" stroke-width="none" opacity="1" stroke="none"></path></g></g><g id="svga-group-faceshape-wrap"><g id="svga-group-faceshape-single"><path id="SvgjsPath8713" d="M139.24 94.99c-.76-8.02 1.89-33.13.68-40.1-2.2-10-6.11-15.74-15.01-20.54-9.3-5-25.03-4.86-25.03-4.86s-15.78-.22-25.08 4.78c-8.7 4.9-12.73 10.58-14.93 20.58-.9 4 0 13.7 0 13.7s1.78 19.58 1.18 26.68c-.5 7.1-.79 19.34 1.31 26.44s11.07 14.23 16.57 16.83 6.9 5.52 9.3 8.92 11.7 3.53 11.7 3.53 9.55-.31 11.95-3.71 3.47-6.12 9.07-8.72c5.5-2.6 14.75-9.62 16.85-16.72 2.2-7.2 1.94-19.61 1.44-26.81z" fill="#ffd0bc" stroke-width="none" opacity="1" stroke="none"></path><path id="SvgjsPath8714" d="M139.92 54.89c-2.2-10-6.11-15.74-15.01-20.54-9.3-5-25.03-4.86-25.03-4.86s-15.78-.22-25.08 4.78c-8.7 4.9-12.73 10.58-14.93 20.58-.9 4 0 13.7 0 13.7s1.78 19.58 1.18 26.68c-.5 7.1-.79 19.34 1.31 26.44s11.07 14.23 16.57 16.83 6.9 5.52 9.3 8.92 11.7 3.53 11.7 3.53 9.55-.31 11.95-3.71c2.4-3.4 3.47-6.12 9.07-8.72 5.5-2.6 14.75-9.62 16.85-16.72 2.2-7.2 1.94-19.61 1.44-26.81-.76-8.02 1.89-33.13.68-40.1zm-.46 18.97-.36 10.56c-.1 3.52-.25 7.05.02 10.58.41 7.01.5 14.1-.51 21.04-.26 1.73-.61 3.45-1.11 5.1-.49 1.65-1.27 3.17-2.24 4.58-.96 1.42-2.12 2.71-3.35 3.92a37.24 37.24 0 0 1-3.93 3.38 45.341 45.341 0 0 1-4.29 2.89c-.74.44-1.5.84-2.25 1.23-.73.37-1.58.72-2.4 1.16-1.63.85-3.22 1.94-4.52 3.34-1.3 1.4-2.27 2.96-3.25 4.36l-.37.52c-.11.11-.21.22-.31.34-.09.12-.26.21-.39.32s-.27.21-.44.3c-.61.39-1.39.67-2.14.94-1.56.49-3.24.8-4.93 1-.84.1-1.7.17-2.54.22-.3.03-.76-.02-1.18-.04l-1.27-.1c-1.69-.17-3.37-.45-4.93-.92-.78-.23-1.52-.52-2.16-.89-.15-.09-.32-.18-.46-.28l-.39-.31c-.14-.1-.2-.22-.31-.33-.09-.08-.22-.26-.34-.44-.98-1.4-1.95-2.95-3.21-4.38-1.25-1.44-2.78-2.65-4.39-3.6-.79-.47-1.69-.9-2.43-1.26-.75-.36-1.49-.77-2.21-1.22-2.9-1.77-5.62-3.93-8-6.35-2.36-2.43-4.45-5.21-5.4-8.29-.93-3.23-1.29-6.71-1.52-10.17-.23-3.47-.25-6.97-.17-10.47.04-1.75.11-3.5.21-5.24.11-1.81.08-3.59.03-5.36-.12-3.55-.36-7.07-.63-10.59s-.59-7.03-.94-10.54c-.36-3.49-.59-7-.5-10.49.02-.87.09-1.74.19-2.59.12-.83.35-1.69.54-2.54.43-1.69.94-3.36 1.58-4.98 1.3-3.23 3.23-6.19 5.75-8.58 2.52-2.36 5.49-4.33 8.62-5.74 3.19-1.34 6.61-2.11 10.05-2.66 6.91-1.03 13.92-1.19 20.83-.35 3.46.38 6.89.97 10.21 1.86 1.67.43 3.27 1.01 4.84 1.66 1.51.7 3.05 1.48 4.49 2.42 2.88 1.82 5.46 4.07 7.4 6.84 1.95 2.76 3.26 5.97 4.22 9.3.13.41.22.83.34 1.25.11.42.23.83.27 1.24.14.81.2 1.68.26 2.55.1 1.74.13 3.49.13 5.24-.01 3.53-.11 7.05-.21 10.57z" fill="#d17f5b" stroke-width="none" opacity="1" stroke="none"></path></g></g><g id="svga-group-mouth-single-move" transform="matrix(1,0,0,1,0,0)"><g id="svga-group-mouth-single"><path id="SvgjsPath8905" d="M119.9 121.9c-.2-.3-.6-.6-.9-.8-.3-.1-.8-.1-.8.4 0 .3.2.6.5.8-.66 1.22-2.4 1.46-3.8 1.56-1.5.1-2.71.22-4.49-.17-3.42-.92-6.52-1.82-9.62-1.62-2.9.1-5.13.98-7.93 1.78-3.3.9-7.66 2.74-9.96-.66.3-.2.6-.4.8-.7.4-.4 0-1-.5-.9-1 .3-2.3 1.6-2.2 2.7 0 .2.3.4.5.3.4-.3.7-.7 1-1 .9 1.7 2.7 2.5 4.7 2.7 2 .1 3.9-.5 5.9-.9 2.2-.5 4.4-.7 6.6-.8 4.1-.1 8.1.2 12.2.4 2.4.1 5.7.4 7.5-1.5.1.3.2.6.5.8.1.1.3 0 .4-.1.7-.59 0-1.69-.4-2.29z" fill="#da7c87" stroke-width="none" opacity="1"></path><path id="SvgjsPath8906" d="M105.6 128.4c-3.4.2-6.6.7-10 .5-.3 0-.3.4-.1.4 3.2.7 7 .9 10.2-.2.4-.1.4-.7-.1-.7z" fill="#e09879" stroke-width="none" opacity="1"></path></g></g><g id="svga-group-eyes-left-move" transform="matrix(1,0,0,1,0,0)"><g id="svga-group-eyes-left"><g id="svga-group-eyesback-left"><path id="SvgjsPath9952" d="M80.2 74.2c7.5 0 13.5 5.8 13.5 13s-6 13-13.5 13-13.5-5.8-13.5-13 6-13 13.5-13z" fill="#ffffff" stroke-width="none" opacity="1"></path></g><g id="svga-group-eyesiriswrapper-left" transform="matrix(1,0,0,1,0,0)"><g id="svga-group-eyesiriscontrol-left" transform="matrix(1,0,0,1,0,0)"><g id="svga-group-eyesiris-left"><path id="SvgjsPath10675" d="M80.2 81.6c3.1 0 5.6 2.5 5.6 5.6s-2.5 5.6-5.6 5.6-5.6-2.5-5.6-5.6 2.5-5.6 5.6-5.6z" fill="#4e60a3" stroke-width="none" opacity="1"></path><path id="SvgjsPath10676" d="M80.2 82.7c2.5 0 4.5 2 4.5 4.5s-2 4.5-4.5 4.5-4.5-2-4.5-4.5 2-4.5 4.5-4.5z" fill="#000000" stroke-width="none" opacity="1"></path><path id="SvgjsPath10677" d="M74.6 87.2c0 .9.2 1.8.6 2.6.8.5 1.8.8 2.8.8 2.9 0 5.3-2.4 5.3-5.3 0-1.2-.4-2.4-1.1-3.3-.6-.2-1.3-.4-2-.4-3.1 0-5.6 2.5-5.6 5.6z" fill="#6777b2" stroke-width="none" opacity="1"></path><path id="SvgjsPath10678" d="M75.7 87.2c0 1.3.5 2.4 1.4 3.3.3.1.6.1 1 .1 2.9 0 5.3-2.4 5.3-5.3 0-.5-.1-1.1-.2-1.6-.8-.7-1.8-1.1-2.9-1.1-2.6.1-4.6 2.1-4.6 4.6z" fill="#1e1e1e" stroke-width="none" opacity="1"></path><path id="SvgjsPath10679" d="M77.7 84.8c.6-.7 1.6-.9 2-.4.5.5.4 1.4-.3 2.1s-1.6.9-2 .4c-.4-.5-.3-1.4.3-2.1z" fill="#2b2b2b" stroke-width="none" opacity="1"></path></g></g></g><g id="svga-group-eyesfront-left"><path id="SvgjsPath9960" d="M80.2 73.7c-7.8 0-14.1 6.1-14.1 13.6s6.3 13.6 14.1 13.6 14.1-6.1 14.1-13.6S88 73.7 80.2 73.7zM79 90.6c-6.5-.3-11.9-2.5-12.1-2.9s4.4-3.8 14.1-3.4c9.7.5 11.6 5.2 11.6 5.2-1.6 1-7.2 1.4-13.6 1.1z" fill="#ffd0bc" stroke-width="none" opacity="1"></path><path id="SvgjsPath9961" d="M86 90.8c1.1-.1 2.3-.2 3.4-.3.6-.1 1.1-.2 1.7-.3.6-.2 1.1-.3 1.6-.6-.2-.6-.6-1-.9-1.4l-.6-.6c-.2-.2-.4-.4-.7-.5-.9-.7-2-1.2-3-1.6-2.2-.8-4.5-1.1-6.7-1.2-2.3-.1-4.6.1-6.8.6-1.1.2-2.2.5-3.3.8-1.1.4-2.2.8-3.1 1.4l-.3.3c-.1.1-.2.2-.3.4v.2s0 .1.1.1l.1.1.2.1c.1.1.3.1.4.2.5.3 1.1.5 1.6.7 1.1.4 2.2.7 3.3 1 2.2.5 4.5.9 6.8 1 1.9-.2 4.2-.3 6.5-.4zm-16.8-2.3c-.5-.2-1.1-.4-1.6-.6-.1-.1-.2-.1-.4-.2l-.2-.1c0-.1.1-.2.2-.2l.3-.3c.9-.6 1.9-1.1 3-1.5 1.1-.4 2.2-.7 3.3-.8 2.2-.4 4.5-.4 6.8-.3 1.1.1 2.2.2 3.4.3.6.1 1.1.2 1.7.3.5.2 1.1.3 1.6.5 1.1.3 2.1.8 3 1.4.9.6 1.8 1.4 2.3 2.4-.5.2-1.1.4-1.6.5-.6.1-1.1.2-1.7.2-1.1.1-2.2.2-3.4.2-2.3.1-4.5 0-6.8-.1-2.2-.1-4.5-.4-6.7-.9-1-.1-2.1-.4-3.2-.8z" fill="#000000" stroke-width="none" opacity="1"></path><path id="SvgjsPath9962" d="M76.9 94.9C88.7 96.3 93.6 91 93.6 91c-8.1 4.6-16.7 3.9-16.7 3.9zm7.9-13.1c4.3 1.4 5.9 2.8 5.9 2.8s-1.1-1.4-6.1-3.2c-5-1.8-14.6.4-14.6.4s10.2-1.6 14.8 0z" fill="#e09879" stroke-width="none" opacity="1"></path></g></g></g><g id="svga-group-eyes-right-move" transform="matrix(1,0,0,1,0,0)"><g id="svga-group-eyes-right"><g id="svga-group-eyesback-right"><path id="SvgjsPath9953" d="M119.8 74.2c7.5 0 13.5 5.8 13.5 13s-6 13-13.5 13-13.5-5.8-13.5-13 6-13 13.5-13z" fill="#ffffff" stroke-width="none" opacity="1"></path></g><g id="svga-group-eyesiriswrapper-right" transform="matrix(1,0,0,1,0,0)"><g id="svga-group-eyesiriscontrol-right" transform="matrix(1,0,0,1,0,0)"><g id="svga-group-eyesiris-right"><path id="SvgjsPath10680" d="M119.8 82.3c2.7 0 4.9 2.2 4.9 4.9s-2.2 4.9-4.9 4.9-4.9-2.2-4.9-4.9 2.2-4.9 4.9-4.9z" fill="#4e60a3" stroke-width="none" opacity="1"></path><path id="SvgjsPath10681" d="M119.8 83.2c2.2 0 4 1.8 4 4s-1.8 4-4 4-4-1.8-4-4 1.8-4 4-4z" fill="#000000" stroke-width="none" opacity="1"></path><path id="SvgjsPath10682" d="M114.9 87.2c0 .8.2 1.6.6 2.3.7.4 1.5.7 2.4.7 2.6 0 4.6-2.1 4.6-4.6 0-1.1-.4-2.1-1-2.9-.5-.2-1.1-.3-1.7-.3-2.7-.1-4.9 2.1-4.9 4.8z" fill="#6777b2" stroke-width="none" opacity="1"></path><path id="SvgjsPath10683" d="M115.8 87.2c0 1.1.5 2.2 1.2 2.9.3.1.6.1.8.1 2.6 0 4.6-2.1 4.6-4.6 0-.5-.1-.9-.2-1.4-.7-.6-1.6-.9-2.5-.9-2.1-.1-3.9 1.7-3.9 3.9z" fill="#1e1e1e" stroke-width="none" opacity="1"></path><path id="SvgjsPath10684" d="M117.6 86.1c.6-.6 1.4-.8 1.8-.4.4.4.3 1.2-.2 1.8s-1.4.8-1.8.4c-.4-.4-.3-1.2.2-1.8z" fill="#2b2b2b" stroke-width="none" opacity="1"></path></g></g></g><g id="svga-group-eyesfront-right"><path id="SvgjsPath9963" d="M119.8 73.7c-7.8 0-14.1 6.1-14.1 13.6s6.3 13.6 14.1 13.6 14.1-6.1 14.1-13.6-6.3-13.6-14.1-13.6zm.5 15.6c-6.4.2-11.3.4-13-.4 0 0 1.9-3.6 11.5-3.9 9.6-.4 14.2 2.3 14 2.6-.2.3-6.1 1.5-12.5 1.7z" fill="#ffd0bc" stroke-width="none" opacity="1"></path><path id="SvgjsPath9966" d="M132.8 87.3c-.1-.1-.2-.2-.4-.2-2-1-4.2-1.4-6.4-1.8-2.2-.3-4.4-.5-6.6-.5-2.2 0-4.4.3-6.6.8-1.1.3-2.1.7-3.1 1.2-.5.2-1 .6-1.4.9-.4.4-.8.7-1.1 1.3.5.3 1.1.4 1.6.5.6.1 1.1.2 1.7.2 1.1.1 2.2.1 3.3.1 2.2 0 4.4-.1 6.6-.1 2.2-.1 4.4-.3 6.6-.6 1.1-.2 2.2-.3 3.3-.6.5-.1 1.1-.2 1.6-.4.3-.1.5-.2.8-.3 0 0 .1 0 .1-.1l.1-.1s.1-.1.1-.2c-.1-.1-.2-.1-.2-.1zm-1 .4c-.5.1-1.1.2-1.6.3-1.1.2-2.2.3-3.2.5-2.2.3-4.4.4-6.6.5l-6.6.2c-1.1 0-2.2.1-3.3 0-.6 0-1.1 0-1.6-.1s-1.1-.1-1.6-.3c.3-.4.7-.8 1.2-1.1.4-.3.9-.6 1.4-.8 1-.5 2-.8 3.1-1.1 2.1-.5 4.3-.7 6.5-.8 2.2-.1 4.4-.1 6.6.2 1.1.1 2.2.4 3.2.7s2.1.7 3 1.2c.1.1.2.1.3.2-.3.3-.5.4-.8.4z" fill="#000000" stroke-width="none" opacity="1"></path><path id="SvgjsPath9967" d="M107.1 90.3s4.8 5.2 16.5 3.9c0-.1-8.5.6-16.5-3.9zm6-6.1c4.4-2.2 14.4-2.2 14.4-2.2s-9.7-.7-14.3 1.8c-4.7 2.5-5.5 4-5.5 4s1.4-1.6 5.4-3.6z" fill="#e09879" stroke-width="none" opacity="1"></path></g></g></g><g id="svga-group-facehighlight-single"></g><g id="svga-group-eyebrows-left-move" transform="matrix(1,0,0,1,0,0)"><g id="svga-group-eyebrows-left-rotate" transform="matrix(1,1.7453292519943295e-9,-1.7453292519943295e-9,1,1.2391838311032188e-7,-1.3753196981269866e-7)"><g id="svga-group-eyebrows-left"><path id="SvgjsPath11314" d="M91.5 72.22s-1.28 2.06-2.36 1.59c-1.08-.48-6.27-3.19-9.56-2.78-3.29.41-5.17 2.39-5.17 2.39l-1.48.75.48.39s-3.13 2.59-3.97 2.55c-.84-.04-2.04-1.27-1.97-3.59.07-2.32 3.08-5.09 3.08-5.09s-.48.18-1.49.66c0 0 1.23-1.86 4.52-3.33 3.3-1.47 9.08-1.46 10.9-.54L84 64.16s4.38 1.8 5.44 3.25l.17-1.09c-.01-.01 2.89 2.54 1.89 5.9z" fill="#2a232b" stroke-width="none" opacity="1"></path><path id="SvgjsPath11315" d="M91.49 68.91c-.18-.54-.44-1.04-.74-1.5-.3-.46-.63-.89-1.03-1.27l-.24-.24-.07.37-.11.62c-.3-.32-.63-.57-.97-.8-.45-.31-.91-.59-1.38-.85-.94-.52-1.88-.99-2.86-1.42l-.75-.33.37.82.13.29c-.45-.13-.9-.21-1.35-.28-.7-.09-1.4-.13-2.1-.13-1.4 0-2.79.12-4.17.4-.69.14-1.37.32-2.04.56-.67.25-1.31.56-1.94.91-.63.35-1.23.76-1.8 1.23-.57.47-1.11.97-1.57 1.63l-.57.81.85-.4.47-.22c-.59.67-1.12 1.39-1.57 2.19-.31.58-.58 1.22-.67 1.92-.07.7 0 1.4.21 2.07.21.66.58 1.27 1.11 1.65.27.18.58.32.92.25.31-.08.58-.23.85-.37 1.06-.62 2.06-1.35 3.04-2.11l.2-.16-.21-.18-.2-.17 1.19-.57.02-.01.04-.03c.56-.52 1.23-.95 1.91-1.29.68-.35 1.4-.61 2.13-.78.74-.17 1.47-.28 2.22-.21.75.06 1.5.2 2.25.38 1.49.39 2.96.93 4.41 1.55l1.08.48c.18.08.36.16.55.23.21.08.44.07.64.01.4-.13.72-.41 1.01-.71.29-.31.53-.65.75-1.02.15-.53.28-1.09.25-1.66.02-.56-.07-1.13-.26-1.66zm.1 2.7-.04.2-.08.4c-.23.33-.51.64-.8.92-.29.27-.62.51-.96.59-.17.03-.35.03-.5-.04-.17-.08-.35-.17-.53-.26l-1.07-.53c-1.43-.69-2.9-1.32-4.42-1.75-.76-.21-1.54-.38-2.33-.44l-.6-.02c-.2 0-.4.02-.6.03a9.226 9.226 0 0 0-3.41 1.05c-.7.38-1.35.84-1.95 1.43l-1.44.78-.31.16.28.22.28.22c-.87.74-1.77 1.46-2.72 2.05-.26.15-.52.3-.79.37-.25.06-.54-.06-.78-.22-.49-.34-.84-.92-1.02-1.54-.19-.62-.25-1.31-.18-1.95.08-.64.35-1.24.67-1.79.65-1.09 1.5-2.04 2.4-2.87l.95-.87-1.14.47-.45.19c.23-.21.47-.42.71-.61.55-.43 1.14-.8 1.75-1.13.61-.33 1.24-.62 1.87-.84.64-.21 1.3-.38 1.97-.5.67-.12 1.34-.21 2.02-.26.68-.07 1.36-.08 2.04-.09.68.01 1.36.04 2.03.12.66.09 1.35.2 1.92.47l.82.38-.42-.88-.11-.24c.7.3 1.39.62 2.07.97.46.24.92.5 1.36.79.43.28.87.6 1.18.98l.31.38.07-.49.1-.7c.27.27.52.57.75.88.3.42.56.89.76 1.38.21.49.32 1.03.37 1.57l.02.41-.03.41c-.01.06-.01.13-.02.2z" fill="#1b141c" stroke-width="none" opacity="1"></path></g></g></g><g id="svga-group-eyebrows-right-move" transform="matrix(1,0,0,1,0,0)"><g id="svga-group-eyebrows-right-rotate" transform="matrix(1,1.7453292519943295e-9,-1.7453292519943295e-9,1,1.2705996255135688e-7,-2.123193070246998e-7)"><g id="svga-group-eyebrows-right"><path id="SvgjsPath11316" d="M109.22 76.81s1.57 1.57 2.57.99 5.71-3.72 9.02-3.89c3.31-.17 5.46 1.24 5.46 1.24l1.57.41-.41.41s3.48 1.74 4.3 1.57c.83-.17 1.82-1.41 1.41-3.39-.41-1.99-3.81-3.89-3.81-3.89s.5.08 1.57.33c0 0-1.49-1.41-4.96-2.15s-9.18.17-10.84 1.24l.33-.99s-4.05 2.23-4.88 3.64l-.33-.91c-.01.01-2.49 2.66-1 5.39z" fill="#2a232b" stroke-width="none" opacity="1"></path><path id="SvgjsPath11317" d="M133.17 73.9c-.19-.59-.55-1.09-.95-1.55-.56-.62-1.2-1.16-1.88-1.64l.5.12.9.21-.69-.61c-.56-.49-1.16-.84-1.8-1.15-.63-.31-1.29-.57-1.96-.77-.67-.2-1.35-.37-2.05-.48-.7-.1-1.4-.15-2.1-.16-1.4-.03-2.79.09-4.17.31-.69.11-1.37.25-2.05.44-.43.13-.87.27-1.29.45l.09-.27.25-.76-.69.4c-.9.52-1.76 1.07-2.61 1.66-.42.3-.83.61-1.23.95-.3.25-.58.54-.83.86l-.21-.54-.12-.31-.21.24c-.33.39-.6.81-.83 1.25-.23.44-.4.91-.5 1.4-.11.49-.11 1-.04 1.49.05.5.27.96.5 1.39.28.29.57.54.89.76.33.21.69.4 1.11.45.21.02.43-.01.63-.11.18-.09.34-.19.51-.29l1-.58c1.34-.76 2.71-1.45 4.12-2.02.71-.27 1.43-.52 2.16-.68.73-.17 1.47-.2 2.23-.17.75.03 1.5.15 2.22.34.72.19 1.45.45 2.08.81l.04.02.03.01 1.26.3-.17.18-.18.19.22.1c1.08.5 2.17.97 3.31 1.34.29.08.58.17.9.19.34 0 .63-.17.87-.36.47-.41.74-1 .85-1.6.1-.6.06-1.22-.11-1.81zm-.09 1.78c-.09.56-.35 1.12-.78 1.48-.21.17-.48.32-.74.31-.27-.02-.56-.11-.84-.19-1.03-.35-2.02-.84-2.99-1.33l.24-.23.24-.23-.33-.09-1.54-.44a8.24 8.24 0 0 0-2.14-.92 10.3 10.3 0 0 0-2.34-.38c-.4-.02-.79-.02-1.19.01-.2.02-.4.04-.6.07l-.59.11c-.77.18-1.51.44-2.23.75-1.44.61-2.79 1.38-4.11 2.19l-.98.62c-.16.1-.32.22-.48.31-.14.08-.31.12-.49.11-.36-.02-.71-.17-1.04-.36-.32-.19-.64-.42-.92-.67l-.14-.33-.07-.16c-.02-.06-.03-.12-.05-.17l-.09-.35-.04-.35c-.04-.47 0-.95.13-1.41.13-.46.31-.89.54-1.31.18-.31.39-.6.61-.88l.2.59.14.41.25-.37c.25-.38.63-.72 1.02-1.03.39-.31.8-.61 1.22-.89.62-.41 1.25-.79 1.9-1.16l-.08.22-.28.82.76-.45c.53-.32 1.19-.53 1.83-.7a26 26 0 0 1 1.99-.42c.67-.1 1.35-.2 2.02-.25.68-.06 1.36-.09 2.03-.09.68 0 1.35.04 2.02.12.66.09 1.32.24 1.97.43.65.19 1.29.41 1.9.7.27.12.54.26.8.41l-.47-.09-1.2-.23 1.06.6c1.01.57 1.99 1.25 2.8 2.09.4.42.76.89.93 1.43.19.53.24 1.13.15 1.7z" fill="#1b141c" stroke-width="none" opacity="1"></path></g></g></g><g id="svga-group-beardwrap"><g id="svga-group-beard-single-move" transform="matrix(1,0,0,1,0,0)"><g id="svga-group-beard-single"></g></g></g><g id="svga-group-mustache-single-move" transform="matrix(1,0,0,1,0,0)"><g id="svga-group-mustache-single"></g></g><g id="svga-group-nose-single-move" transform="matrix(1,0,0,1,0,0)"><g id="svga-group-nose-single"><path id="SvgjsPath8783" d="M99.1 116.5c.67.12 4.53-3.31 4.53-3.31s2.06 1.59 3.62 1.43c1.56-.16 2.44-1.08 3-1.96.56-.88-.89-3.1-1.78-4.41-.9-1.31-3.54-5.22-4.09-7.02-1.07-3.45-3-4.76-4.92-4.64-1.92.12-4.04 1.52-4.6 3.44-.56 1.92-.72 4.28-1.8 5.76s-3.32 4-3.56 4.72c-.24.72-.11 2.8 1.24 3.56 1.73.97 4.3-.51 4.3-.51s3.18 2.78 4.06 2.94z" fill="#ffd0bc" stroke-width="none" opacity="1" stroke="none"></path><path id="SvgjsPath8784" d="M110.28 110.87c-.42-1.01-1.08-1.86-1.81-2.61.57.88 1.08 1.8 1.39 2.76.15.48.24.97.16 1.42-.05.23-.12.41-.26.6-.13.2-.29.39-.47.54-.69.66-1.7.91-2.68.78-.49-.06-.99-.2-1.46-.39-.45-.16-.86-.39-1.29-.62.38-.56.72-1.15 1.02-1.76-.97.91-1.89 1.83-2.87 2.64-.49.4-.98.8-1.51 1.09-.51.3-1.07.55-1.51.52-.12.01-.21-.02-.31-.04-.09-.05-.17-.06-.3-.16-.24-.15-.49-.36-.74-.55-.5-.39-.99-.82-1.49-1.23-.99-.84-1.99-1.69-3.07-2.48a21.8 21.8 0 0 0 1.68 2.24c-.5.22-1.01.41-1.53.52-.64.12-1.3.15-1.84-.1-1.09-.53-1.72-1.83-1.54-2.94.05-.28.13-.5.3-.74.17-.26.36-.53.56-.79.4-.52.82-1.02 1.26-1.52l.66-.74c.26-.28.46-.56.67-.84.41-.57.77-1.18 1.07-1.83.3-.65.48-1.4.59-2.06.12-.68.22-1.35.3-2.02.15-1.35.27-2.69.31-4.04.1-2.7.03-5.42-.51-8.07.05 2.69-.14 5.35-.4 8-.15 1.32-.29 2.65-.5 3.96-.1.66-.2 1.31-.32 1.96-.12.66-.27 1.22-.54 1.79a9.34 9.34 0 0 1-.94 1.65c-.18.26-.37.53-.57.74-.23.26-.45.51-.66.78-.43.53-.85 1.07-1.24 1.63-.2.28-.39.57-.57.88-.2.33-.34.76-.37 1.14-.13 1.57.85 3.05 2.25 3.55.73.23 1.47.11 2.12-.11.54-.19 1.03-.46 1.49-.77.24.28.47.57.71.84.44.5.91.96 1.41 1.42.25.23.51.44.82.65.13.1.36.22.57.3.22.06.44.12.66.11.88 0 1.55-.38 2.14-.76.58-.41 1.1-.86 1.55-1.37.44-.48.84-.99 1.21-1.53.75.66 1.64 1.25 2.68 1.45.54.12 1.11.12 1.66 0 .55-.14 1.07-.41 1.49-.8.21-.19.39-.42.54-.65.17-.23.29-.54.32-.84.06-.55-.08-1.1-.29-1.6z" fill="#d17f5b" stroke-width="none" opacity="1" stroke="none"></path></g></g><g id="svga-group-hair-front"><path id="SvgjsPath13673" d="M52.6 63.6s-2.3 16.1-12.4 22.2c0 0 4.2-.4 6.9-2.3 0 0-1 8.2 4.2 14.9 0 0-3.2-8.4-1.2-14.4s6.5-11.7 6.5-11.7 3.2 5.9 4.4 11.9c1.2 5.9.2 10 .2 10s4.4-13.6 2.3-20.9S62.3 54 62.3 54s6 3 10.9 3c0 0-6.3-3.1-7.5-6.9 0 0 6.3-1.5 12.4-.4 6.1 1.2 9.2 3.8 9.2 3.8s-4.8-6.3-11.1-8.4c0 0 13.8 0 22.2-3.1 0 0 2.3 2.3 8.8 2.1 6.5-.2 7.7-1.5 12.4-1.2s12.6 3.6 14.2 8.6 1.5 11.3 3.8 14.6c0 0-.2 11.1-3.2 14 0 0 2.7-3.2 3.6-6.1 0 0 6.5 10.9 14.9 13.4 0 0-4.8-5.6-5.6-8 0 0 9.4 4.8 10.5 12.2 0 0 .2-9.2-7.1-19 0 0 3.4 1.7 8.2.6 0 0-7.7-6.7-9.6-13.4 0 0 3.6 2.9 7.9 3.5 0 0-9.2-9-10.1-13.6 0 0 3.4-.6 7.1 1.5 0 0-2.7-9.6-12.4-15.5 0 0 3.6-1.3 5.2-3.6 0 0-8.8 2.5-12.6 2.3 0 0 2.3-3.8 3.6-8.2 0 0-8.6 2.9-13.8 1.5 0 0 5.4-6.5 6.7-9.6 0 0-14.9 7.1-22.8 5 0 0 11.7-8.8 14-14.4 0 0-18.4 8.8-25.1 9.2l1.5-2.9-5.9 3.1 1.3-2.1-3.1.2S78.9 21 73.6 28.8c0 0 2.7-6.5 2.9-12.2 0 0-2.7 3.1-5.4 5.4s-9.7 13.4-10.9 15-3.6 7-3.6 7-.6-9.8-5.4-13c0 0 4 5.7 3.5 16.3 0 0-3.6 5-11.9-2.7 0 0 1.2 6.3 10.9 6.5 0 0-8.4 6.3-8.6 18.4 0 0 2.9-7.1 7.5-5.9z" fill="#2a232b" stroke-width="none" opacity="1"></path><path id="SvgjsPath13674" d="M129.9 19.4C118.8 36 96.3 45.7 76.5 44.7c-.4 0-.4.6 0 .6 10.8 1.2 21.9-2.5 31.7-6.8 8.8-3.9 18-9.8 22.3-18.8.2-.3-.3-.7-.6-.3zm-17.1 4.8c6.4-.1 12.9-2 18.2-5.8.3-.2 0-.7-.3-.5-5.7 3.2-11.3 5.3-17.9 5.8-.3.1-.3.5 0 .5zm22.5 8c.3-.2 0-.7-.3-.5-5.1 3.1-10.2 6-15.8 8.1-5.3 2.1-12.3 4.8-18 3.4-.4-.1-.5.5-.2.6 5.4 1.9 11.7-.7 16.8-2.5 6.2-2.2 12.2-5.1 17.5-9.1zm8.8 22.8c.2.3.6 0 .4-.3-5.2-9.5-16.8-12.7-27-12-.3 0-.3.5 0 .5 10.6.8 20 2.8 26.6 11.8zM158 72.8c.4.1.6-.5.3-.6-10-5.1-17.9-11.3-24.3-20.6-.2-.3-.6 0-.4.2 5.1 9.4 14.1 17.6 24.4 21zm-16.3-5.9c-.3-.2-.6.1-.4.4 4 4.3 10.4 6.2 16.1 6.4.4 0 .5-.7.1-.8-5.8-1.2-11.1-2.1-15.8-6zm11.2 19.9c-6.1-3.3-10.8-7.3-14.1-13.6-.2-.3-.7-.1-.6.2 2.6 6.2 7.9 11.9 14.4 14 .4.2.6-.4.3-.6zm-59-57.7c-.4.1-.2.7.2.6 11.8-3 24.1-11.1 29.5-22.3.1-.2-.2-.4-.4-.2-7.9 10.5-16.4 18.1-29.3 21.9zm4.7-10.6c7.8-2 15.7-4.4 22.4-8.9.3-.2 0-.6-.3-.5-7.1 4-14.6 6.4-22.2 9-.3 0-.2.4.1.4zM80 28.9c-.2.3.2.6.4.4 5.2-5.8 11-10.1 17.8-13.9.2-.1.1-.6-.2-.5-6.9 2.9-13.3 8-18 14zm-7.4 1.2c-.2.2.2.5.4.3 5.6-6 11.5-10.4 19-13.9.3-.1.1-.6-.2-.5-7.5 2.4-14.6 7.7-19.2 14.1zm-8.8 6.5c-.2.2.1.5.3.4 7.2-4.5 12.6-13.1 13.1-21.6 0-.3-.4-.3-.4-.1-2.2 8.8-6 15.4-13 21.3zm-7.5 8.3v.3c0 .7.1 1.3.1 2 0 .3.4.3.4 0 .1-.8.2-1.7.2-2.5C61 34.5 67.8 27 75.1 18.9c.3-.3-.2-.7-.4-.4-7.2 6.8-14.4 14.8-17.7 24.3-.2-4.5-1.8-9-5.5-11.9-.3-.2-.8.2-.5.5 4.1 3.6 5 8.4 5.3 13.5zm-2.2 4.9c-4.9 2.1-9.2-.6-10.8-5.4-.1-.3-.7-.3-.7.1.4 5.8 6.9 8.4 11.6 5.7.3 0 .1-.5-.1-.4zm1.4-2.4c-4.3 2.3-8.6.8-11.6-2.8-.2-.2-.5.1-.4.3 2.7 3.8 8.2 6.7 12.3 3.1.4-.3 0-.8-.3-.6zm-2 3.4c-5.9 4.5-8.7 11.6-8.9 18.9 0 .3.6.4.6.1 1.2-7.1 2.9-13.6 8.8-18.3.3-.4-.1-1-.5-.7zm-7.8 18.9c.8-2.7 3-4.7 5.6-5.8.4-.2.2-.7-.2-.6-3 .8-5.1 3.2-5.7 6.3-.1.2.2.3.3.1zm7-8.7C50.9 72.6 47 82.6 35.6 87.5c-.3.1-.1.6.2.5 11.9-2.7 16.7-16.2 17.7-27 .1-.4-.7-.5-.8 0zm101.2-13.2c.1.2.5.1.4-.2-1.8-5.5-6.8-9.8-12.1-12-.3-.1-.4.3-.2.5 5.2 3 8.6 6.9 11.9 11.7zm-7.1 1.6c1.9 5.5 6.3 10.8 10.8 14.4.2.2.6-.1.4-.3-3.6-4.8-7.9-8.8-10.8-14.2-.1-.4-.5-.2-.4.1zM47.2 83c0-.4-.6-.4-.6-.1-1.3 5.6.7 11.8 4.7 15.8.2.2.7-.1.5-.4-3.5-4.7-4.7-9.5-4.6-15.3zm105.4-5.7c-.3-.3-.7.2-.4.4 3.9 3.9 5.6 8.8 5.6 14.3 0 .3.5.4.6.1.8-5.6-1.6-11.1-5.8-14.8zm-91 9.5c-.1-7.1-5.2-12.6-4.5-20 0-.2-.4-.3-.4-.1-1.9 6.8 3.1 13.6 4.3 20.1.1.4.6.3.6 0zM72.8 56c-4.3-1.4-5.9-5-7.7-8.8-.1-.2-.5-.1-.4.2.9 3.1 2.6 7.1 5.7 8.6-1.7-.2-3.4-.5-5-1.1-1.9-.7-3.4-1.8-5.1-2.7-.2-.1-.4.2-.2.3.5.5 1 1 1.6 1.4-1.4 4.9-.7 10 .1 15 1.2 7.6 2.1 14.2-1 21.5-.2.4.3.6.5.3 3.1-4.4 3-10.2 2.4-15.3-.9-7.3-2.8-13.8-1.7-21.2 2.6 1.8 6.2 2.6 9.1 2.4.2 0 .3-.1.2-.3.5.1.9.2 1.5.2.3.1.3-.4 0-.5zm5.1-7c-3.5-1-7.2-1.3-10.6.2-.2.1-.1.4.2.4 6.5-1.2 14.3.2 19.5 4.6.3.2.6-.1.4-.4-2.1-2.6-6.3-3.9-9.5-4.8zm53.6-13.3c-.2 0-.2.4.1.4 2.5 0 4.1-2.3 5.2-4.3 1.6-2.7 2.6-5.9 2.2-9 0-.3-.5-.4-.5-.1-.4 2.4-.7 4.8-1.7 7.1-1 2.2-2.7 5.5-5.3 5.9z" fill="#1b141c" stroke-width="none" opacity="1"></path></g><g id="svga-group-glasses-single-move" transform="matrix(1,0,0,1,0,0)"><g id="svga-group-glasses-single"></g></g></g></g></g><rect id="svga-credit-rect" width="200" height="15" x="0" y="185" fill="#ecf0f1" opacity="0.5" style="display: none;"></rect><text id="svga-credit-text" font-family="Avenir Next, Roboto, Helvetica, Arial, sans-serif" font-size="10px" text-anchor="start" font-weight="400" size="10px" anchor="start" weight="400" fill="#333333" x="33.404022216796875" y="182.46938824653625" style="display: none;"><tspan id="SvgjsTspan8593" dy="13" x="33.404022216796875">Created on AvatarMaker.com</tspan></text></g><defs id="SvgjsDefs8540"><linearGradient id="SvgjsLinearGradient12401" x1="78.6326" y1="126.359" x2="78.6326" y2="100.9055" gradientTransform="matrix(1 0 0 -1 0 202)" gradientUnits="userSpaceOnUse" class="svga-on-canvas-glasses-gradient-single-0-null"><stop id="SvgjsStop12402" stop-opacity="1" stop-color="#000000" offset="0" ></stop><stop id="SvgjsStop12403" stop-opacity="0" stop-color="#000000" offset="1" ></stop></linearGradient><linearGradient id="SvgjsLinearGradient12405" x1="-1739.1173" y1="126.359" x2="-1739.1173" y2="100.9055" gradientTransform="matrix(-1 0 0 -1 -1618 202)" gradientUnits="userSpaceOnUse" class="svga-on-canvas-glasses-gradient-single-1-null"><stop id="SvgjsStop12406" stop-opacity="1" stop-color="#000000" offset="0" ></stop><stop id="SvgjsStop12407" stop-opacity="0" stop-color="#000000" offset="1" ></stop></linearGradient><linearGradient id="SvgjsLinearGradient12455" x1="79.5772" y1="74.9681" x2="79.5772" y2="107.6386" gradientUnits="userSpaceOnUse" class="svga-on-canvas-glasses-gradient-single-0-null"><stop id="SvgjsStop12456" stop-opacity="1" stop-color="#150000" offset="0.004166667" ></stop><stop id="SvgjsStop12457" stop-opacity="0.8088" stop-color="#190300" offset="0.1945" ></stop><stop id="SvgjsStop12458" stop-opacity="0.6342" stop-color="#240c00" offset="0.3684" ></stop><stop id="SvgjsStop12459" stop-opacity="0.466" stop-color="#361b00" offset="0.5359" ></stop><stop id="SvgjsStop12460" stop-opacity="0.3018" stop-color="#503100" offset="0.6994" ></stop><stop id="SvgjsStop12461" stop-opacity="0.1421" stop-color="#724c00" offset="0.8585" ></stop><stop id="SvgjsStop12462" stop-opacity="0" stop-color="#966a00" offset="1" ></stop></linearGradient><linearGradient id="SvgjsLinearGradient12464" x1="-21.1858" y1="74.8347" x2="-21.1858" y2="107.5897" gradientTransform="matrix(-1 0 0 1 100 0)" gradientUnits="userSpaceOnUse" class="svga-on-canvas-glasses-gradient-single-1-null"><stop id="SvgjsStop12465" stop-opacity="1" stop-color="#150000" offset="0.004166667" ></stop><stop id="SvgjsStop12466" stop-opacity="0.8088" stop-color="#190300" offset="0.1945" ></stop><stop id="SvgjsStop12467" stop-opacity="0.6342" stop-color="#240c00" offset="0.3684" ></stop><stop id="SvgjsStop12468" stop-opacity="0.466" stop-color="#361b00" offset="0.5359" ></stop><stop id="SvgjsStop12469" stop-opacity="0.3018" stop-color="#503100" offset="0.6994" ></stop><stop id="SvgjsStop12470" stop-opacity="0.1421" stop-color="#724c00" offset="0.8585" ></stop><stop id="SvgjsStop12471" stop-opacity="0" stop-color="#966a00" offset="1" ></stop></linearGradient><linearGradient id="SvgjsLinearGradient12540" x1="78.6326" y1="126.359" x2="78.6326" y2="100.9055" gradientTransform="matrix(1 0 0 -1 0 202)" gradientUnits="userSpaceOnUse" class="svga-on-canvas-glasses-gradient-single-0-null"><stop id="SvgjsStop12541" stop-opacity="1" stop-color="#000000" offset="0" ></stop><stop id="SvgjsStop12542" stop-opacity="0" stop-color="#000000" offset="1" ></stop></linearGradient><linearGradient id="SvgjsLinearGradient12544" x1="-1739.1173" y1="126.359" x2="-1739.1173" y2="100.9055" gradientTransform="matrix(-1 0 0 -1 -1618 202)" gradientUnits="userSpaceOnUse" class="svga-on-canvas-glasses-gradient-single-1-null"><stop id="SvgjsStop12545" stop-opacity="1" stop-color="#000000" offset="0" ></stop><stop id="SvgjsStop12546" stop-opacity="0" stop-color="#000000" offset="1" ></stop></linearGradient></defs></svg>